<svg width="348" height="462" viewBox="0 0 348 462" fill="none" xmlns="http://www.w3.org/2000/svg">
<g filter="url(#filter0_d_0_351)">
<rect x="34" y="29" width="280" height="394" rx="20" fill="#F2F2F2"/>
<rect x="34.5" y="29.5" width="279" height="393" rx="19.5" stroke="#D2D2D2"/>
</g>
<path d="M115.383 125H76.3984V117.266L94.7969 97.6562C97.3229 94.8958 99.1849 92.487 100.383 90.4297C101.607 88.3724 102.219 86.4193 102.219 84.5703C102.219 82.0443 101.581 80.0651 100.305 78.6328C99.0286 77.1745 97.2057 76.4453 94.8359 76.4453C92.2839 76.4453 90.2656 77.3307 88.7812 79.1016C87.3229 80.8464 86.5937 83.151 86.5937 86.0156H75.2656C75.2656 82.5521 76.0859 79.388 77.7266 76.5234C79.3932 73.6589 81.737 71.4193 84.7578 69.8047C87.7786 68.1641 91.2031 67.3437 95.0312 67.3437C100.891 67.3437 105.435 68.75 108.664 71.5625C111.919 74.375 113.547 78.3464 113.547 83.4766C113.547 86.2891 112.818 89.1536 111.359 92.0703C109.901 94.987 107.401 98.3854 103.859 102.266L90.9297 115.898H115.383V125Z" fill="#F24822"/>
<path fill-rule="evenodd" clip-rule="evenodd" d="M67.2307 185.628L96.5044 215.831L125.778 185.628L96.5044 155.425L67.2307 185.628Z" fill="#F24822"/>
<defs>
<filter id="filter0_d_0_351" x="0" y="0" width="348" height="462" filterUnits="userSpaceOnUse" color-interpolation-filters="sRGB">
<feFlood flood-opacity="0" result="BackgroundImageFix"/>
<feColorMatrix in="SourceAlpha" type="matrix" values="0 0 0 0 0 0 0 0 0 0 0 0 0 0 0 0 0 0 127 0" result="hardAlpha"/>
<feOffset dy="5"/>
<feGaussianBlur stdDeviation="17"/>
<feColorMatrix type="matrix" values="0 0 0 0 0 0 0 0 0 0 0 0 0 0 0 0 0 0 0.1 0"/>
<feBlend mode="normal" in2="BackgroundImageFix" result="effect1_dropShadow_0_351"/>
<feBlend mode="normal" in="SourceGraphic" in2="effect1_dropShadow_0_351" result="shape"/>
</filter>
</defs>
</svg>
