<svg width="351" height="464" viewBox="0 0 351 464" fill="none" xmlns="http://www.w3.org/2000/svg">
<g filter="url(#filter0_d_0_380)">
<rect x="36.1233" y="29" width="280" height="394" rx="20" transform="rotate(0.308765 36.1233 29)" fill="#F2F2F2"/>
<rect x="36.6206" y="29.5027" width="279" height="393" rx="19.5" transform="rotate(0.308765 36.6206 29.5027)" stroke="#D2D2D2"/>
</g>
<path d="M116.948 74.8893L94.6833 125.317L82.7694 125.253L105.058 77.6378L76.7767 77.4854L76.826 68.3449L116.982 68.5613L116.948 74.8893Z" fill="#F24822"/>
<path fill-rule="evenodd" clip-rule="evenodd" d="M109.757 160.401C99.0668 160.508 96.8761 172.666 96.8761 172.666C96.8761 172.666 94.475 160.483 83.7862 160.261C73.0973 160.039 66.4683 169.377 70.0334 179.264C73.5982 189.151 77.1911 191.391 82.833 198.575C88.4747 205.76 96.6721 218.18 96.6151 221.099C96.5899 218.179 104.578 205.847 110.297 198.723C116.017 191.6 119.633 189.399 123.305 179.551C126.976 169.703 120.448 160.294 109.757 160.401Z" fill="#F24822"/>
<defs>
<filter id="filter0_d_0_380" x="0.107422" y="0.107483" width="349.904" height="463.288" filterUnits="userSpaceOnUse" color-interpolation-filters="sRGB">
<feFlood flood-opacity="0" result="BackgroundImageFix"/>
<feColorMatrix in="SourceAlpha" type="matrix" values="0 0 0 0 0 0 0 0 0 0 0 0 0 0 0 0 0 0 127 0" result="hardAlpha"/>
<feOffset dy="5"/>
<feGaussianBlur stdDeviation="17"/>
<feColorMatrix type="matrix" values="0 0 0 0 0 0 0 0 0 0 0 0 0 0 0 0 0 0 0.1 0"/>
<feBlend mode="normal" in2="BackgroundImageFix" result="effect1_dropShadow_0_380"/>
<feBlend mode="normal" in="SourceGraphic" in2="effect1_dropShadow_0_380" result="shape"/>
</filter>
</defs>
</svg>
