<svg width="351" height="464" viewBox="0 0 351 464" fill="none" xmlns="http://www.w3.org/2000/svg">
<g filter="url(#filter0_d_0_392)">
<rect x="36.1233" y="29" width="280" height="394" rx="20" transform="rotate(0.308765 36.1233 29)" fill="#F2F2F2"/>
<rect x="36.6206" y="29.5027" width="279" height="393" rx="19.5" transform="rotate(0.308765 36.6206 29.5027)" stroke="#D2D2D2"/>
</g>
<path d="M103.076 68.4864L114.794 68.5495L114.582 107.924C114.562 111.544 113.738 114.742 112.108 117.52C110.505 120.272 108.241 122.395 105.316 123.89C102.391 125.385 99.0931 126.122 95.4212 126.102C89.4057 126.07 84.7265 124.521 81.3836 121.456C78.0408 118.365 76.3845 114.02 76.4147 108.421L88.2114 108.485C88.1964 111.271 88.7712 113.332 89.9359 114.666C91.1006 116.001 92.946 116.675 95.472 116.688C97.7115 116.7 99.4995 115.942 100.836 114.412C102.172 112.883 102.848 110.699 102.863 107.861L103.076 68.4864Z" fill="#F24822"/>
<path fill-rule="evenodd" clip-rule="evenodd" d="M109.757 160.401C99.0668 160.508 96.8761 172.666 96.8761 172.666C96.8761 172.666 94.475 160.483 83.7862 160.261C73.0973 160.039 66.4683 169.377 70.0334 179.264C73.5982 189.151 77.1911 191.391 82.833 198.575C88.4747 205.76 96.6721 218.18 96.6151 221.099C96.5899 218.179 104.578 205.847 110.297 198.723C116.017 191.6 119.633 189.399 123.305 179.551C126.976 169.703 120.448 160.294 109.757 160.401Z" fill="#F24822"/>
<defs>
<filter id="filter0_d_0_392" x="0.107422" y="0.107483" width="349.904" height="463.288" filterUnits="userSpaceOnUse" color-interpolation-filters="sRGB">
<feFlood flood-opacity="0" result="BackgroundImageFix"/>
<feColorMatrix in="SourceAlpha" type="matrix" values="0 0 0 0 0 0 0 0 0 0 0 0 0 0 0 0 0 0 127 0" result="hardAlpha"/>
<feOffset dy="5"/>
<feGaussianBlur stdDeviation="17"/>
<feColorMatrix type="matrix" values="0 0 0 0 0 0 0 0 0 0 0 0 0 0 0 0 0 0 0.1 0"/>
<feBlend mode="normal" in2="BackgroundImageFix" result="effect1_dropShadow_0_392"/>
<feBlend mode="normal" in="SourceGraphic" in2="effect1_dropShadow_0_392" result="shape"/>
</filter>
</defs>
</svg>
