<svg width="348" height="462" viewBox="0 0 348 462" fill="none" xmlns="http://www.w3.org/2000/svg">
<g filter="url(#filter0_d_0_368)">
<rect x="34" y="29" width="280" height="394" rx="20" fill="#F2F2F2"/>
<rect x="34.5" y="29.5" width="279" height="393" rx="19.5" stroke="#D2D2D2"/>
</g>
<path d="M87.8828 91.5625H93.8984C96.763 91.5625 98.8854 90.8464 100.266 89.4141C101.646 87.9818 102.336 86.0807 102.336 83.7109C102.336 81.4193 101.646 79.6354 100.266 78.3594C98.9115 77.0833 97.0365 76.4453 94.6406 76.4453C92.4792 76.4453 90.6693 77.0443 89.2109 78.2422C87.7526 79.4141 87.0234 80.9505 87.0234 82.8516H75.7344C75.7344 79.8828 76.5286 77.2266 78.1172 74.8828C79.7318 72.513 81.9714 70.6641 84.8359 69.3359C87.7266 68.0078 90.9036 67.3438 94.3672 67.3438C100.383 67.3438 105.096 68.7891 108.508 71.6797C111.919 74.5443 113.625 78.5026 113.625 83.5547C113.625 86.1589 112.831 88.5547 111.242 90.7422C109.654 92.9297 107.57 94.6094 104.992 95.7812C108.195 96.9271 110.578 98.6458 112.141 100.938C113.729 103.229 114.523 105.938 114.523 109.062C114.523 114.115 112.674 118.164 108.977 121.211C105.305 124.258 100.435 125.781 94.3672 125.781C88.6901 125.781 84.0417 124.284 80.4219 121.289C76.8281 118.294 75.0312 114.336 75.0312 109.414H86.3203C86.3203 111.549 87.1146 113.294 88.7031 114.648C90.3177 116.003 92.2969 116.68 94.6406 116.68C97.3229 116.68 99.4193 115.977 100.93 114.57C102.466 113.138 103.234 111.25 103.234 108.906C103.234 103.229 100.109 100.391 93.8594 100.391H87.8828V91.5625Z" fill="black"/>
<path fill-rule="evenodd" clip-rule="evenodd" d="M109.244 200.985C119.532 201.117 125.862 193.546 122.38 185.577C118.899 177.608 115.428 175.815 109.963 170.037C104.495 164.26 96.5444 154.265 96.582 151.907C96.6222 154.265 88.999 164.26 83.5312 170.037C78.0661 175.815 74.598 177.608 71.1139 185.577C67.6324 193.546 73.9646 201.117 84.2506 200.985C91.3128 200.893 94.491 196.234 95.7874 193.32L95.7874 197.133C95.7874 197.133 93.5327 210.886 77.6205 212.392L75.0839 212.392L75.0839 214.535L118.413 214.535L118.413 212.392L115.874 212.392C99.9641 210.886 97.7067 197.133 97.7067 197.133L97.7067 193.821C99.234 196.737 102.573 200.898 109.244 200.985Z" fill="#1A1919"/>
<defs>
<filter id="filter0_d_0_368" x="0" y="0" width="348" height="462" filterUnits="userSpaceOnUse" color-interpolation-filters="sRGB">
<feFlood flood-opacity="0" result="BackgroundImageFix"/>
<feColorMatrix in="SourceAlpha" type="matrix" values="0 0 0 0 0 0 0 0 0 0 0 0 0 0 0 0 0 0 127 0" result="hardAlpha"/>
<feOffset dy="5"/>
<feGaussianBlur stdDeviation="17"/>
<feColorMatrix type="matrix" values="0 0 0 0 0 0 0 0 0 0 0 0 0 0 0 0 0 0 0.1 0"/>
<feBlend mode="normal" in2="BackgroundImageFix" result="effect1_dropShadow_0_368"/>
<feBlend mode="normal" in="SourceGraphic" in2="effect1_dropShadow_0_368" result="shape"/>
</filter>
</defs>
</svg>
