<svg width="348" height="462" viewBox="0 0 348 462" fill="none" xmlns="http://www.w3.org/2000/svg">
<g filter="url(#filter0_d_0_354)">
<rect x="34" y="29" width="280" height="394" rx="20" fill="#F2F2F2"/>
<rect x="34.5" y="29.5" width="279" height="393" rx="19.5" stroke="#D2D2D2"/>
</g>
<path d="M78.0781 97.0312L81.3594 68.125H113.234V77.5391H90.6172L89.2109 89.7656C91.8932 88.3333 94.7448 87.6172 97.7656 87.6172C103.182 87.6172 107.427 89.2969 110.5 92.6562C113.573 96.0156 115.109 100.716 115.109 106.758C115.109 110.43 114.328 113.724 112.766 116.641C111.229 119.531 109.016 121.784 106.125 123.398C103.234 124.987 99.8229 125.781 95.8906 125.781C92.4531 125.781 89.263 125.091 86.3203 123.711C83.3776 122.305 81.0469 120.339 79.3281 117.812C77.6354 115.286 76.737 112.409 76.6328 109.18H87.8047C88.0391 111.549 88.8594 113.398 90.2656 114.727C91.6979 116.029 93.5599 116.68 95.8516 116.68C98.4036 116.68 100.37 115.768 101.75 113.945C103.13 112.096 103.82 109.492 103.82 106.133C103.82 102.904 103.026 100.43 101.437 98.7109C99.849 96.9922 97.5964 96.1328 94.6797 96.1328C91.9974 96.1328 89.8229 96.8359 88.1562 98.2422L87.0625 99.2578L78.0781 97.0312Z" fill="#F24822"/>
<path fill-rule="evenodd" clip-rule="evenodd" d="M67.2307 185.628L96.5044 215.831L125.778 185.628L96.5044 155.425L67.2307 185.628Z" fill="#F24822"/>
<defs>
<filter id="filter0_d_0_354" x="0" y="0" width="348" height="462" filterUnits="userSpaceOnUse" color-interpolation-filters="sRGB">
<feFlood flood-opacity="0" result="BackgroundImageFix"/>
<feColorMatrix in="SourceAlpha" type="matrix" values="0 0 0 0 0 0 0 0 0 0 0 0 0 0 0 0 0 0 127 0" result="hardAlpha"/>
<feOffset dy="5"/>
<feGaussianBlur stdDeviation="17"/>
<feColorMatrix type="matrix" values="0 0 0 0 0 0 0 0 0 0 0 0 0 0 0 0 0 0 0.1 0"/>
<feBlend mode="normal" in2="BackgroundImageFix" result="effect1_dropShadow_0_354"/>
<feBlend mode="normal" in="SourceGraphic" in2="effect1_dropShadow_0_354" result="shape"/>
</filter>
</defs>
</svg>
