<svg width="348" height="462" viewBox="0 0 348 462" fill="none" xmlns="http://www.w3.org/2000/svg">
<g filter="url(#filter0_d_0_375)">
<rect x="34" y="29" width="280" height="394" rx="20" fill="#F2F2F2"/>
<rect x="34.5" y="29.5" width="279" height="393" rx="19.5" stroke="#D2D2D2"/>
</g>
<path d="M78.0781 97.0312L81.3594 68.125H113.234V77.5391H90.6172L89.2109 89.7656C91.8932 88.3333 94.7448 87.6172 97.7656 87.6172C103.182 87.6172 107.427 89.2969 110.5 92.6562C113.573 96.0156 115.109 100.716 115.109 106.758C115.109 110.43 114.328 113.724 112.766 116.641C111.229 119.531 109.016 121.784 106.125 123.398C103.234 124.987 99.8229 125.781 95.8906 125.781C92.4531 125.781 89.263 125.091 86.3203 123.711C83.3776 122.305 81.0469 120.339 79.3281 117.812C77.6354 115.286 76.737 112.409 76.6328 109.18H87.8047C88.0391 111.549 88.8594 113.398 90.2656 114.727C91.6979 116.029 93.5599 116.68 95.8516 116.68C98.4036 116.68 100.37 115.768 101.75 113.945C103.13 112.096 103.82 109.492 103.82 106.133C103.82 102.904 103.026 100.43 101.438 98.7109C99.849 96.9922 97.5964 96.1328 94.6797 96.1328C91.9974 96.1328 89.8229 96.8359 88.1562 98.2422L87.0625 99.2578L78.0781 97.0312Z" fill="black"/>
<path fill-rule="evenodd" clip-rule="evenodd" d="M109.244 200.985C119.532 201.117 125.862 193.546 122.38 185.577C118.899 177.608 115.428 175.815 109.963 170.037C104.495 164.26 96.5444 154.265 96.582 151.907C96.6222 154.265 88.999 164.26 83.5312 170.037C78.0661 175.815 74.598 177.608 71.1139 185.577C67.6324 193.546 73.9646 201.117 84.2506 200.985C91.3128 200.893 94.491 196.234 95.7874 193.32L95.7874 197.133C95.7874 197.133 93.5327 210.886 77.6205 212.392L75.0839 212.392L75.0839 214.535L118.413 214.535L118.413 212.392L115.874 212.392C99.9641 210.886 97.7067 197.133 97.7067 197.133L97.7067 193.821C99.234 196.737 102.573 200.898 109.244 200.985Z" fill="#1A1919"/>
<defs>
<filter id="filter0_d_0_375" x="0" y="0" width="348" height="462" filterUnits="userSpaceOnUse" color-interpolation-filters="sRGB">
<feFlood flood-opacity="0" result="BackgroundImageFix"/>
<feColorMatrix in="SourceAlpha" type="matrix" values="0 0 0 0 0 0 0 0 0 0 0 0 0 0 0 0 0 0 127 0" result="hardAlpha"/>
<feOffset dy="5"/>
<feGaussianBlur stdDeviation="17"/>
<feColorMatrix type="matrix" values="0 0 0 0 0 0 0 0 0 0 0 0 0 0 0 0 0 0 0.1 0"/>
<feBlend mode="normal" in2="BackgroundImageFix" result="effect1_dropShadow_0_375"/>
<feBlend mode="normal" in="SourceGraphic" in2="effect1_dropShadow_0_375" result="shape"/>
</filter>
</defs>
</svg>
