<svg width="348" height="462" viewBox="0 0 348 462" fill="none" xmlns="http://www.w3.org/2000/svg">
<g filter="url(#filter0_d_0_376)">
<rect x="34" y="29" width="280" height="394" rx="20" fill="#F2F2F2"/>
<rect x="34.5" y="29.5" width="279" height="393" rx="19.5" stroke="#D2D2D2"/>
</g>
<path d="M107.023 67.5391V76.8359H105.93C100.826 76.9141 96.7109 78.2422 93.5859 80.8203C90.487 83.3984 88.625 86.9792 88 91.5625C91.0208 88.4896 94.8359 86.9531 99.4453 86.9531C104.393 86.9531 108.326 88.724 111.242 92.2656C114.159 95.8073 115.617 100.469 115.617 106.25C115.617 109.948 114.81 113.294 113.195 116.289C111.607 119.284 109.341 121.615 106.398 123.281C103.482 124.948 100.174 125.781 96.4766 125.781C90.487 125.781 85.6432 123.698 81.9453 119.531C78.2734 115.365 76.4375 109.805 76.4375 102.852V98.7891C76.4375 92.6172 77.5964 87.1745 79.9141 82.4609C82.2578 77.7214 85.6042 74.0625 89.9531 71.4844C94.3281 68.8802 99.3932 67.5651 105.148 67.5391H107.023ZM96.0078 96.0156C94.1849 96.0156 92.5312 96.4974 91.0469 97.4609C89.5625 98.3984 88.4687 99.6484 87.7656 101.211V104.648C87.7656 108.424 88.5078 111.38 89.9922 113.516C91.4766 115.625 93.5599 116.68 96.2422 116.68C98.6641 116.68 100.617 115.729 102.102 113.828C103.612 111.901 104.367 109.414 104.367 106.367C104.367 103.268 103.612 100.768 102.102 98.8672C100.591 96.9661 98.5599 96.0156 96.0078 96.0156Z" fill="#050505"/>
<path fill-rule="evenodd" clip-rule="evenodd" d="M110.755 176.288C109.056 176.288 107.437 176.659 105.961 177.328C107.347 175.139 108.161 172.487 108.161 169.627C108.161 162.122 102.571 156.037 95.6759 156.037C88.7809 156.037 83.1913 162.122 83.1913 169.627C83.1913 172.35 83.93 174.884 85.197 177.01C83.9372 176.545 82.5883 176.288 81.1841 176.288C74.2888 176.288 68.6995 182.373 68.6995 189.878C68.6995 197.383 74.2888 203.467 81.1841 203.467C82.7413 203.467 84.2308 203.154 85.6056 202.587C85.6053 202.59 91.4158 200.882 95.2354 193.315V197.871C95.2354 197.871 93.277 212.234 79.4706 213.806H77.2672V216.044H114.868V213.806H112.665C98.8584 212.234 96.8999 197.871 96.8999 197.871V193.622C97.6113 195.327 101.545 203.665 110.384 203.458C110.508 203.461 110.631 203.467 110.755 203.467C117.651 203.467 123.24 197.383 123.24 189.878C123.24 182.373 117.651 176.288 110.755 176.288Z" fill="#1A1919"/>
<defs>
<filter id="filter0_d_0_376" x="0" y="0" width="348" height="462" filterUnits="userSpaceOnUse" color-interpolation-filters="sRGB">
<feFlood flood-opacity="0" result="BackgroundImageFix"/>
<feColorMatrix in="SourceAlpha" type="matrix" values="0 0 0 0 0 0 0 0 0 0 0 0 0 0 0 0 0 0 127 0" result="hardAlpha"/>
<feOffset dy="5"/>
<feGaussianBlur stdDeviation="17"/>
<feColorMatrix type="matrix" values="0 0 0 0 0 0 0 0 0 0 0 0 0 0 0 0 0 0 0.1 0"/>
<feBlend mode="normal" in2="BackgroundImageFix" result="effect1_dropShadow_0_376"/>
<feBlend mode="normal" in="SourceGraphic" in2="effect1_dropShadow_0_376" result="shape"/>
</filter>
</defs>
</svg>
