<?xml version="1.0" standalone="no"?>
<!DOCTYPE svg PUBLIC "-//W3C//DTD SVG 20010904//EN"
 "http://www.w3.org/TR/2001/REC-SVG-20010904/DTD/svg10.dtd">
<svg version="1.0" xmlns="http://www.w3.org/2000/svg"
 width="197.000000pt" height="297.000000pt" viewBox="0 0 197.000000 297.000000"
 preserveAspectRatio="xMidYMid meet">

<g transform="translate(0.000000,297.000000) scale(0.100000,-0.100000)"
fill="#000000" stroke="none">
<path d="M176 2845 c-15 -15 -16 -131 -16 -1305 0 -1158 2 -1290 16 -1304 14
-14 96 -16 752 -17 850 -1 845 -1 854 14 4 6 7 592 8 1303 0 1036 -2 1293 -12
1301 -8 7 -295 13 -799 17 -717 6 -788 6 -803 -9z m1574 -32 c2 -2 4 -306 2
-676 -1 -370 -2 -947 -2 -1283 l0 -612 -772 5 c-425 3 -774 7 -776 8 -6 6 -13
2472 -7 2521 l6 51 772 -4 c425 -3 774 -7 777 -10z"/>
<path d="M210 2323 c0 -430 2 -484 15 -473 8 7 24 10 35 7 11 -3 20 -2 20 3 0
17 38 17 54 -1 9 -11 16 -21 16 -23 0 -9 -45 -2 -59 8 -12 9 -13 7 -8 -7 4
-10 7 -25 7 -33 0 -8 6 -14 14 -14 20 0 37 -25 30 -44 -3 -9 -12 -16 -20 -16
-17 0 -19 17 -2 22 23 8 -4 30 -28 24 -25 -7 -31 3 -13 21 14 14 2 53 -17 53
-17 0 -18 -12 -1 -29 10 -11 7 -13 -15 -9 l-28 5 0 -75 0 -75 21 19 c22 19 22
19 11 -2 -13 -24 -7 -35 14 -27 18 7 18 -2 -2 -32 -18 -28 -35 -25 -27 5 3 11
0 20 -6 20 -7 0 -11 -36 -11 -110 0 -74 4 -110 11 -110 7 0 9 10 7 25 -4 17
-1 25 9 25 11 0 11 5 -2 31 -15 29 -15 32 5 62 12 18 19 23 15 12 -16 -46 -17
-56 -2 -79 11 -17 13 -26 5 -34 -8 -8 -8 -15 2 -27 7 -8 10 -19 6 -22 -4 -4
-11 -1 -15 6 -6 10 -10 10 -16 2 -4 -7 -1 -18 5 -26 15 -18 -1 -20 -18 -3 -9
9 -12 -4 -12 -61 0 -61 2 -72 14 -62 14 12 46 5 46 -10 0 -8 -15 -13 -32 -10
-5 0 -8 -3 -8 -8 0 -18 17 -21 36 -7 18 14 18 16 1 50 -9 20 -22 36 -28 36 -6
0 -3 7 5 16 9 8 16 22 16 30 0 8 9 14 20 14 24 0 26 -9 4 -25 -23 -17 -11 -65
16 -65 11 0 20 7 20 15 0 8 -4 15 -10 15 -5 0 -10 5 -10 10 0 13 27 13 35 0
11 -18 -6 -50 -26 -50 -10 0 -19 -7 -19 -15 0 -8 6 -15 14 -15 19 0 26 -23 16
-57 -5 -15 -9 -20 -9 -10 -1 9 -8 17 -16 17 -9 0 -12 6 -8 16 5 14 3 14 -16 3
-17 -11 -25 -11 -41 -1 -20 12 -20 10 -20 -110 0 -127 11 -150 21 -45 5 47 8
56 14 39 4 -12 11 -22 17 -22 5 0 4 -8 -2 -19 -5 -11 -10 -38 -10 -60 0 -28
-7 -48 -20 -61 -19 -19 -20 -33 -20 -344 0 -179 4 -327 8 -330 12 -7 1351 -10
1359 -3 3 4 -4 7 -17 7 -23 0 -23 0 -4 15 19 14 19 14 -3 15 -12 0 -25 -5 -28
-10 -3 -6 -12 -10 -20 -10 -10 0 -14 14 -13 50 0 59 22 70 36 17 5 -20 15 -32
26 -32 9 0 21 -7 26 -15 8 -12 10 -12 10 -1 0 9 8 11 25 7 19 -5 25 -3 25 11
0 16 1 16 17 1 22 -23 2 -48 -41 -48 -22 -1 -27 -3 -16 -9 8 -5 42 -8 75 -7
l60 1 3 493 2 492 -21 -21 c-18 -18 -23 -19 -42 -6 -14 9 -21 23 -19 36 2 15
-2 21 -16 21 -21 0 -49 26 -39 36 3 4 13 -1 22 -9 31 -31 64 5 39 42 -31 43
-94 9 -94 -51 0 -16 -3 -19 -11 -11 -8 8 -7 17 1 34 25 49 41 59 90 59 34 0
50 4 54 16 11 28 7 37 -11 23 -15 -13 -16 -11 -9 14 8 33 0 35 -25 3 -23 -29
-73 -56 -104 -56 -28 0 -75 36 -75 57 0 9 -3 13 -7 10 -3 -4 -6 -155 -5 -336
1 -273 -1 -331 -13 -341 -33 -27 -36 -2 -33 268 1 147 -1 273 -5 280 -5 6 -4
12 0 12 5 0 7 25 5 55 -2 34 0 55 7 55 6 0 7 8 3 20 -4 11 -5 48 -2 80 3 33 2
67 -3 75 -5 9 -4 15 2 15 5 0 12 -6 14 -12 4 -10 6 -10 6 -1 1 6 -3 15 -9 18
-5 3 -10 11 -10 16 0 6 3 8 8 6 4 -3 8 6 8 19 1 13 -1 22 -5 19 -4 -2 -8 12
-9 31 -1 20 3 32 8 29 6 -3 10 -1 10 4 0 6 -5 11 -11 11 -8 0 -10 21 -7 64 2
36 0 62 -4 60 -14 -9 -8 13 7 26 8 7 15 18 15 24 0 6 -5 4 -10 -4 -12 -18 -11
-32 -12 168 -1 129 -4 152 -17 152 -12 0 -11 3 4 13 10 8 15 19 11 25 -8 14 3
15 22 3 10 -6 13 -88 14 -397 0 -214 4 -398 9 -409 6 -16 8 -17 8 -3 1 24 34
41 49 26 15 -15 16 -38 2 -38 -5 0 -10 -11 -10 -24 0 -17 8 -27 28 -34 l27
-10 -27 -1 c-22 -1 -29 5 -34 26 -4 15 -2 34 5 45 14 23 9 33 -14 25 -20 -8
-20 -56 1 -85 18 -27 78 -30 112 -6 28 19 30 39 3 24 -32 -17 -30 -12 10 29
26 26 39 48 39 66 0 18 -13 40 -39 66 -21 22 -36 39 -32 39 12 0 37 -24 65
-62 29 -39 27 -56 -12 -101 -8 -9 -12 -20 -8 -24 4 -5 12 0 17 9 5 9 15 23 23
30 31 31 28 54 -14 107 -78 98 -180 97 -180 -2 0 -30 4 -37 20 -37 21 0 27 15
10 25 -12 8 -13 42 -1 49 5 4 7 -3 4 -14 -4 -14 1 -26 13 -35 24 -17 7 -38
-27 -33 -21 3 -24 9 -27 49 -3 41 1 50 24 68 45 35 94 23 152 -37 16 -17 27
-21 34 -14 6 6 6 12 -1 16 -17 11 -13 29 4 22 8 -3 15 -2 15 3 0 16 -25 28
-65 30 -70 4 -106 56 -80 118 8 20 18 34 21 30 3 -3 1 -15 -6 -26 -18 -34 4
-99 37 -107 33 -9 58 7 58 36 0 30 -32 51 -45 30 -6 -9 -5 -17 3 -22 6 -4 8
-10 4 -14 -12 -12 -30 13 -23 31 3 9 15 19 25 22 11 3 21 17 24 31 6 34 1 41
-16 19 -9 -12 -16 -14 -27 -6 -11 8 -12 12 -3 16 7 2 13 11 13 19 0 13 3 13
22 0 12 -9 32 -16 44 -16 24 0 40 -28 25 -43 -5 -5 -17 -4 -30 2 -30 16 -28
-9 3 -46 24 -29 24 -29 5 -42 -20 -12 -20 -12 5 -32 20 -16 23 -25 17 -42 -4
-12 -6 -28 -3 -36 2 -7 -2 -17 -9 -22 -11 -6 -11 -11 -1 -21 16 -16 16 -50 0
-66 -10 -10 -10 -15 1 -21 7 -5 11 -14 7 -19 -4 -6 -1 -21 6 -32 12 -19 10
-24 -15 -46 -29 -24 -29 -44 0 -44 12 0 9 -7 -11 -25 -33 -31 -37 -85 -6 -85
11 0 20 7 20 15 0 10 -6 12 -17 8 -16 -6 -16 -5 -4 11 10 12 17 14 25 6 5 -5
14 -10 18 -10 4 0 8 187 8 415 0 270 -3 415 -10 415 -6 0 -10 -30 -10 -70 0
-64 -13 -94 -23 -52 -3 13 -7 10 -16 -12 -15 -37 -11 -60 12 -64 12 -2 15 1
11 12 -3 9 -1 16 5 16 6 0 11 -9 11 -20 0 -32 -46 -27 -57 7 l-9 26 -32 -43
c-18 -24 -32 -41 -32 -37 0 4 -10 2 -22 -4 -19 -9 -21 -9 -10 2 6 7 12 16 12
20 0 12 -53 20 -63 10 -8 -8 -7 -11 1 -11 7 0 12 -4 12 -10 0 -5 -9 -10 -20
-10 -11 0 -20 7 -20 15 0 21 32 35 71 31 19 -2 26 -1 17 1 -32 8 -20 26 13 19
26 -5 30 -3 25 10 -4 11 -2 15 8 11 29 -11 86 84 86 144 0 31 -9 36 -28 17
-19 -19 -37 4 -23 30 6 11 11 27 11 36 0 32 -56 79 -145 121 -94 45 -155 97
-155 135 0 11 0 23 0 28 0 4 9 8 21 8 30 2 46 21 31 36 -9 9 -15 8 -27 -8 -10
-13 -14 -15 -15 -5 0 12 -3 12 -17 -1 -31 -26 -62 -28 -78 -5 -20 28 -21 60
-1 35 15 -21 37 -23 54 -6 17 17 15 28 -7 28 -11 0 -22 -8 -24 -17 -4 -17 -5
-17 -6 0 -1 24 -32 22 -38 -3 -5 -20 -12 -21 -162 -18 -94 1 -159 6 -163 13
-5 7 -8 6 -8 -1 0 -12 -40 -11 -123 4 -37 7 -52 6 -62 -5 -12 -12 -16 -11 -27
7 -7 11 -22 20 -33 20 -20 -1 -20 -1 -1 -15 16 -12 17 -17 6 -30 -7 -8 -23
-15 -36 -15 -13 0 -24 -6 -24 -12 -1 -7 -9 -3 -19 9 -10 12 -21 19 -25 16 -3
-3 -12 0 -21 7 -18 15 -30 7 -22 -15 4 -8 18 -15 32 -15 20 0 25 -5 25 -25 0
-41 -54 -90 -155 -141 -52 -26 -106 -61 -120 -76 -25 -28 -34 -81 -15 -93 15
-10 12 -25 -6 -25 -13 0 -15 -7 -9 -42 4 -23 14 -48 21 -56 12 -11 14 -9 14
16 0 48 10 62 50 68 32 5 39 11 48 41 9 28 8 40 -4 58 -14 21 -10 55 6 55 4 0
13 -35 20 -77 7 -43 16 -86 21 -95 5 -10 10 -37 12 -61 2 -35 -2 -47 -20 -61
-25 -19 -32 -6 -8 14 23 19 19 73 -8 98 -47 44 -99 20 -110 -49 -5 -34 -4 -35
29 -36 37 -1 64 21 47 38 -8 8 -13 7 -17 0 -13 -20 -36 -12 -36 12 0 60 82 49
88 -12 4 -40 -23 -77 -44 -60 -8 6 -28 12 -46 13 -41 2 -69 39 -75 100 -7 60
-23 70 -23 14 0 -24 -5 -50 -10 -58 -13 -20 -14 83 -1 108 5 9 15 31 22 47 8
17 23 38 34 48 20 18 20 18 -2 12 -16 -4 -23 -2 -23 7 0 17 61 48 93 48 20 1
20 2 5 11 -10 5 -18 17 -18 25 0 13 3 13 23 0 36 -23 94 13 106 66 9 40 4 58
-16 58 -11 0 -14 -6 -10 -21 5 -17 2 -20 -14 -16 -27 7 -25 -22 3 -32 l22 -8
-21 -11 c-17 -10 -25 -9 -37 3 -20 20 -43 19 -68 -5 -17 -15 -19 -22 -9 -34 8
-10 9 -16 1 -21 -5 -3 -10 1 -10 9 0 29 -27 16 -34 -16 -3 -17 -9 -28 -12 -25
-4 3 -1 20 5 38 6 18 11 41 10 53 0 21 -1 21 -9 1 -8 -18 -9 -18 -9 -2 -1 14
-6 17 -21 12 -20 -6 -28 9 -10 20 6 3 10 21 10 40 0 19 -4 37 -10 40 -16 10
-11 41 10 60 24 22 26 35 5 35 -8 0 -15 6 -15 13 0 16 41 41 49 30 3 -5 20
-15 36 -22 20 -9 25 -15 15 -18 -51 -15 -90 -43 -90 -65 1 -20 25 -48 43 -48
24 0 32 21 13 32 -9 5 -14 13 -11 19 10 16 21 10 33 -17 7 -14 16 -23 21 -19
5 3 13 0 16 -6 5 -7 14 -4 29 9 11 11 34 22 49 26 16 4 40 18 53 31 35 35 68
32 101 -10 17 -21 37 -35 51 -35 12 0 22 3 22 6 0 10 -26 32 -46 37 -10 3 149
5 353 5 239 1 380 5 392 12 32 17 62 12 83 -15 11 -14 28 -25 39 -25 10 0 19
-4 19 -9 0 -5 8 -7 19 -4 13 3 20 -2 24 -18 4 -16 11 -20 26 -16 12 3 24 1 27
-4 3 -5 0 -9 -5 -9 -18 0 -12 -37 7 -45 33 -15 42 -13 42 6 0 11 4 17 10 14 5
-3 10 1 10 9 0 9 -8 16 -19 16 -23 0 -38 37 -22 53 8 8 14 8 23 -1 9 -9 8 -12
-5 -12 -11 0 -14 -5 -10 -16 7 -19 43 -14 57 8 8 13 7 23 -2 39 -11 18 -11 20
0 17 19 -7 36 -60 21 -65 -16 -6 -18 -93 -2 -93 5 0 7 -5 4 -10 -4 -6 -11 -8
-16 -5 -5 4 -9 -3 -9 -15 0 -11 6 -23 13 -25 7 -4 13 -29 14 -70 1 -36 7 -73
12 -83 7 -12 10 83 11 306 0 251 -3 322 -12 322 -13 1 -739 1 -748 0 -2 0 6
-8 20 -17 17 -12 25 -13 28 -5 6 18 27 14 48 -9 l18 -20 8 20 c10 27 49 27 66
0 8 -12 19 -18 28 -15 8 3 14 1 14 -5 0 -6 4 -8 10 -4 5 3 7 12 4 20 -9 22 82
32 105 11 10 -9 22 -16 28 -16 5 0 10 -14 10 -30 l0 -30 -22 20 c-23 22 -45
26 -45 9 0 -6 9 -13 20 -16 11 -3 17 -9 14 -14 -3 -5 -11 -6 -17 -2 -7 4 -23
7 -37 6 -15 -1 -18 0 -8 3 23 7 23 31 1 38 -10 3 6 4 35 2 32 -2 48 0 40 5 -7
5 -29 9 -49 9 -41 0 -69 -24 -69 -61 0 -18 -2 -21 -10 -9 -8 12 -12 12 -36 0
-26 -14 -27 -15 -5 -18 12 -2 20 -9 18 -15 -3 -11 55 -57 74 -57 6 0 7 -4 4
-10 -9 -15 -47 -12 -69 5 -11 8 -27 15 -35 15 -13 0 -13 -3 2 -17 11 -11 38
-18 79 -21 61 -4 64 -3 101 32 20 21 37 43 37 51 0 8 5 17 12 21 8 5 9 2 5 -9
-4 -11 -1 -17 9 -17 9 0 14 -5 12 -11 -2 -6 -7 -10 -11 -9 -4 0 -28 -15 -53
-34 l-45 -35 -162 2 c-154 2 -162 3 -165 22 -1 11 2 26 7 34 8 12 12 12 25 2
17 -14 36 -7 36 15 0 8 4 14 9 14 6 0 6 12 0 30 -6 17 -15 30 -20 30 -13 0
-11 -18 2 -22 6 -2 9 -13 7 -23 -4 -18 -6 -18 -15 5 -14 32 -55 80 -69 80 -6
0 -21 -11 -33 -24 -13 -14 -28 -23 -35 -22 -6 2 -8 1 -3 -1 10 -6 9 -33 -2
-33 -5 0 -11 6 -14 13 -2 6 -9 -4 -14 -23 -17 -61 28 -114 65 -76 9 9 11 16 5
16 -6 0 -13 -6 -16 -12 -9 -25 -42 7 -44 43 -2 31 1 29 13 -10 3 -10 7 -11 19
-1 8 7 12 16 9 21 -3 5 0 9 5 9 6 0 11 -4 11 -9 0 -5 6 -16 14 -23 9 -9 10
-21 5 -36 -7 -19 -15 -22 -57 -21 -47 2 -49 3 -50 32 0 16 -3 31 -5 33 -2 2
-19 -9 -38 -26 -38 -33 -75 -43 -134 -37 -38 3 -37 4 10 6 68 3 121 35 167
102 21 30 45 62 53 72 19 22 19 27 -3 27 -13 0 -26 -17 -43 -52 -13 -29 -32
-59 -41 -66 -10 -7 -18 -20 -18 -28 0 -9 -8 -14 -17 -13 -10 2 -36 -5 -57 -15
-49 -20 -87 -12 -41 9 39 18 65 39 65 54 0 6 13 11 28 11 16 0 37 9 47 20 21
23 9 27 -20 7 -17 -11 -24 -11 -45 0 -25 13 -25 13 11 13 23 0 42 7 54 20 19
21 14 50 -9 50 -19 0 -33 -23 -17 -28 8 -3 6 -8 -6 -17 -12 -9 -20 -10 -24 -3
-9 14 -28 1 -39 -26 -7 -17 -9 -18 -9 -3 -1 32 -36 59 -76 59 -28 0 -34 3 -25
13 9 11 30 13 88 6 6 0 12 -7 12 -15 0 -20 49 -15 56 7 3 10 15 17 31 17 14 0
32 -8 39 -17 13 -17 15 -17 25 0 11 19 45 23 51 5 3 -8 11 -7 27 4 12 9 18 18
13 22 -5 3 -176 5 -380 4 l-372 0 0 -485z m48 447 c-19 -30 -1 -36 23 -7 20
26 59 37 59 17 0 -5 -9 -10 -21 -10 -16 0 -19 -4 -14 -20 4 -13 0 -23 -14 -32
-12 -7 -21 -18 -21 -25 0 -7 -6 -13 -12 -13 -9 0 -13 15 -12 43 2 61 3 67 14
67 6 0 5 -8 -2 -20z m199 -40 c0 -52 -12 -59 -33 -19 -13 26 -14 36 -3 55 17
33 36 14 36 -36z m87 28 c6 -25 5 -26 -23 -15 l-29 11 22 17 c11 9 21 17 22
16 1 -1 4 -14 8 -29z m1155 23 c10 -6 12 -19 8 -41 -4 -17 -2 -40 3 -51 7 -13
7 -19 0 -19 -5 0 -10 -9 -10 -21 0 -11 5 -17 10 -14 6 3 10 -1 10 -9 0 -9 -9
-16 -20 -16 -11 0 -20 4 -20 9 0 5 -9 11 -20 14 -20 5 -29 37 -10 37 6 0 10
-7 10 -16 0 -14 3 -14 15 -4 11 9 12 16 5 25 -5 6 -7 15 -3 19 4 3 -3 13 -15
22 -12 8 -22 21 -22 29 0 10 -11 12 -42 8 -29 -4 -39 -3 -34 5 4 7 2 12 -3 12
-6 0 -11 5 -11 10 0 12 130 13 149 1z m-162 -23 c13 -12 23 -29 22 -37 0 -12
-3 -11 -9 4 -7 18 -9 17 -20 -12 -13 -35 -39 -45 -41 -15 0 10 -3 12 -6 5 -6
-15 -33 -17 -33 -3 0 6 5 10 10 10 6 0 10 7 10 16 0 8 5 12 10 9 6 -4 10 5 10
19 0 32 16 33 47 4z m-96 1 c25 -13 16 -29 -17 -29 -26 0 -27 1 -18 24 7 19 9
19 35 5z m-846 -9 c-8 -12 -3 -13 29 0 17 6 26 6 26 0 0 -6 -9 -10 -21 -10
-12 0 -19 -5 -16 -12 2 -7 15 -12 28 -11 l24 3 -24 -10 c-18 -8 -26 -7 -32 1
-4 6 -12 9 -18 5 -7 -5 -9 -1 -5 8 3 9 1 16 -6 16 -6 0 -8 5 -5 10 3 6 11 10
16 10 6 0 7 -4 4 -10z m393 -43 c2 -10 -3 -17 -11 -17 -16 0 -30 24 -19 34 10
10 27 1 30 -17z m-488 4 c0 -6 -4 -13 -10 -16 -5 -3 -10 1 -10 9 0 9 5 16 10
16 6 0 10 -4 10 -9z m25 -35 c-20 -27 -35 -36 -63 -38 l-36 -3 26 -27 c14 -16
30 -28 37 -28 24 0 9 -18 -33 -41 l-45 -23 -25 23 c-29 27 -43 76 -27 95 9 10
8 15 -4 20 -18 7 -20 36 -2 36 7 0 18 -5 25 -12 7 -7 34 -11 64 -9 40 2 59 8
77 26 35 34 38 23 6 -19z m165 40 c0 -3 -4 -8 -10 -11 -5 -3 -10 -1 -10 4 0 6
5 11 10 11 6 0 10 -2 10 -4z m755 -36 c3 -6 28 -10 56 -10 32 0 49 -4 50 -12
0 -7 4 -4 8 7 10 23 57 52 68 41 4 -4 1 -11 -7 -16 -8 -6 -11 -10 -7 -10 4 0
2 -10 -4 -22 -7 -12 -13 -37 -14 -55 -2 -32 -38 -83 -59 -83 -17 0 -96 41 -96
51 0 5 5 9 12 9 13 0 58 39 58 51 0 4 -14 7 -31 7 -23 -1 -37 7 -55 28 -13 16
-23 33 -24 37 0 9 37 -9 45 -23z m-785 0 c0 -5 -4 -10 -10 -10 -5 0 -10 5 -10
10 0 6 5 10 10 10 6 0 10 -4 10 -10z m298 -8 c2 -7 -2 -10 -12 -6 -9 3 -16 11
-16 16 0 13 23 5 28 -10z m62 9 c0 -5 -7 -11 -15 -15 -15 -5 -20 5 -8 17 9 10
23 9 23 -2z m245 -1 c3 -5 1 -10 -4 -10 -6 0 -11 5 -11 10 0 6 2 10 4 10 3 0
8 -4 11 -10z m40 0 c3 -5 1 -10 -4 -10 -6 0 -11 5 -11 10 0 6 2 10 4 10 3 0 8
-4 11 -10z m-688 -6 c-3 -3 -12 -4 -19 -1 -8 3 -5 6 6 6 11 1 17 -2 13 -5z
m-309 -16 c-2 -6 -21 -17 -41 -24 -31 -11 -37 -11 -37 1 0 9 6 12 15 9 8 -4
15 -1 15 6 0 7 7 10 15 6 8 -3 15 -1 15 4 0 6 5 10 11 10 6 0 9 -5 7 -12z
m293 -58 c5 0 9 -5 9 -12 0 -6 -9 -3 -21 8 -17 15 -23 16 -41 5 -11 -7 -23 -9
-26 -6 -4 4 1 11 11 16 9 6 17 20 17 32 0 19 3 18 21 -10 12 -18 25 -33 30
-33z m739 39 c0 -6 -5 -7 -10 -4 -6 4 -17 1 -25 -5 -12 -10 -15 -9 -15 4 0 10
4 15 9 11 5 -3 12 -1 16 5 7 12 25 4 25 -11z m-703 5 c-3 -3 -12 -4 -19 -1 -8
3 -5 6 6 6 11 1 17 -2 13 -5z m640 0 c-3 -3 -12 -4 -19 -1 -8 3 -5 6 6 6 11 1
17 -2 13 -5z m149 -55 c-28 -22 -44 -25 -27 -6 6 8 9 16 7 18 -2 2 7 5 20 5
l24 2 -24 -19z m284 -9 c0 -15 -41 -39 -56 -33 -17 6 -43 -14 -53 -39 -4 -12
-10 -15 -21 -8 -13 8 -11 12 8 26 14 9 21 22 18 32 -4 12 5 21 32 33 36 16 72
10 72 -11z m-870 -10 c0 -5 -4 -10 -10 -10 -5 0 -10 5 -10 10 0 6 5 10 10 10
6 0 10 -4 10 -10z m-490 -30 c16 -16 18 -25 11 -38 -10 -16 -10 -15 -11 2 0
11 -7 28 -17 38 -22 25 -8 23 17 -2z m845 -128 c-3 -3 -11 0 -18 7 -9 10 -8
11 6 5 10 -3 15 -9 12 -12z m435 2 c0 -8 -4 -12 -10 -9 -5 3 -10 10 -10 16 0
5 5 9 10 9 6 0 10 -7 10 -16z m-545 -64 c129 -44 215 -129 254 -249 12 -35 21
-86 21 -112 0 -48 -30 -143 -58 -187 -13 -21 -13 -25 6 -45 67 -71 88 -258 43
-367 -13 -30 -34 -64 -46 -76 -21 -20 -21 -22 -5 -45 53 -76 69 -217 36 -309
-62 -170 -249 -283 -418 -252 -131 24 -236 101 -290 210 -30 61 -33 74 -33
162 0 87 3 102 31 158 18 37 26 63 20 65 -20 8 -65 111 -73 167 -12 77 1 171
33 236 14 30 31 57 36 60 18 12 20 -6 3 -32 -70 -107 -71 -264 -3 -385 21 -37
23 -38 40 -22 10 9 17 22 14 29 -3 7 5 16 17 20 12 4 38 18 58 31 20 13 43 21
51 18 9 -4 19 -2 23 4 3 6 11 11 16 11 5 0 -2 -20 -16 -45 -15 -24 -24 -49
-20 -55 11 -18 34 -11 52 18 28 43 45 51 98 50 l50 -1 -52 -6 c-47 -5 -55 -10
-82 -48 -34 -47 -39 -49 -66 -30 -12 10 -16 22 -13 40 7 34 2 34 -54 -3 -94
-62 -142 -155 -142 -275 0 -66 4 -90 27 -139 42 -90 86 -138 164 -177 64 -32
74 -34 168 -34 89 0 106 3 155 27 197 97 260 334 137 515 -60 87 -181 150
-302 156 -41 2 -53 -2 -67 -20 -10 -11 -18 -26 -18 -32 0 -6 -4 -11 -10 -11
-15 0 -13 5 20 58 16 26 30 42 30 36 0 -10 56 -18 185 -27 17 -1 34 -8 38 -14
4 -7 17 -13 28 -13 13 0 18 -4 13 -12 -4 -6 -3 -8 4 -4 6 3 25 -2 42 -13 20
-12 27 -20 18 -23 -10 -4 -9 -10 6 -27 11 -11 22 -21 26 -21 10 0 59 111 71
163 15 63 -2 163 -40 240 l-28 56 -23 -24 c-12 -13 -19 -28 -16 -34 4 -5 -9
-15 -28 -22 -19 -7 -32 -17 -29 -23 4 -5 -1 -7 -12 -3 -20 8 -48 -10 -39 -25
4 -6 -3 -5 -15 2 -17 9 -26 9 -37 -1 -19 -16 -18 -5 6 33 21 34 27 78 11 78
-15 0 -61 -53 -61 -70 0 -18 18 -11 25 10 3 11 11 20 16 20 11 0 0 -22 -34
-74 -16 -23 -27 -30 -37 -25 -22 11 -199 36 -194 27 3 -5 1 -8 -5 -8 -5 0 -11
3 -13 8 -5 11 -83 62 -96 62 -7 0 -12 5 -12 11 0 5 5 7 10 4 18 -11 10 11 -10
30 -52 47 -100 171 -100 257 0 241 265 427 495 348z m-821 -21 c-4 -7 -13 -48
-20 -93 l-14 -81 5 76 c5 82 12 109 27 109 5 0 6 -5 2 -11z m257 -46 c8 -56 3
-1502 -4 -1510 -23 -23 -26 32 -31 622 0 22 1 121 3 220 2 99 2 185 1 190 -1
6 -1 15 0 20 2 9 2 270 0 270 -5 0 -4 82 1 90 4 6 3 19 -2 30 -4 11 -8 15 -8
8 -1 -15 -30 -10 -42 8 -13 21 -11 35 3 21 20 -20 37 -14 44 16 13 51 30 58
35 15z m-124 -55 c-3 -8 -6 -5 -6 6 -1 11 2 17 5 13 3 -3 4 -12 1 -19z m1182
6 c16 10 14 5 -14 -48 -27 -51 -29 -56 -17 -56 4 0 15 15 25 32 17 29 20 30
28 15 6 -10 14 -15 19 -12 5 3 11 1 14 -4 3 -5 -1 -12 -10 -15 -8 -3 -12 -11
-8 -17 5 -9 -2 -10 -23 -6 -24 5 -35 1 -54 -19 -12 -13 -24 -30 -25 -37 -1 -6
-5 -21 -9 -32 -7 -18 -7 -19 6 -3 8 10 23 24 34 32 19 15 19 15 -5 10 -21 -4
-22 -3 -5 4 37 17 80 3 93 -30 6 -16 8 -37 5 -45 -5 -11 -3 -14 6 -9 7 5 16
18 21 30 8 20 9 20 9 1 0 -25 -31 -64 -50 -63 -39 2 -69 -3 -69 -12 0 -5 8
-10 18 -11 10 0 12 -2 4 -6 -7 -3 -24 2 -37 11 -14 9 -25 12 -25 7 0 -6 8 -15
18 -20 11 -7 12 -10 4 -11 -26 0 -51 43 -52 88 0 64 40 222 56 222 8 0 14 6
14 13 0 9 3 8 9 -2 5 -7 14 -10 20 -7z m-69 -9 c0 -8 -7 -15 -15 -15 -8 0 -15
7 -15 15 0 8 7 15 15 15 8 0 15 -7 15 -15z m-1119 -54 c5 8 9 10 9 4 0 -18
-14 -32 -48 -49 -33 -17 -34 -17 -27 2 3 11 1 23 -5 27 -17 10 -11 25 10 25
11 0 20 6 20 12 0 7 7 2 16 -11 13 -18 18 -20 25 -10z m1286 -113 c-3 -8 -6
-5 -6 6 -1 11 2 17 5 13 3 -3 4 -12 1 -19z m-1346 -118 c12 0 19 -5 16 -12 -6
-21 24 -36 63 -31 26 4 40 0 50 -12 12 -15 12 -19 -3 -30 -11 -8 -14 -16 -8
-19 6 -4 8 -13 5 -21 -3 -7 2 -25 11 -38 15 -24 15 -27 0 -51 -20 -30 -37 -33
-55 -11 -11 13 -11 18 0 28 7 7 10 7 7 2 -3 -6 -2 -17 3 -25 7 -11 11 -11 24
-1 9 8 16 20 16 27 0 22 -47 92 -69 104 -26 14 -38 13 -23 -2 7 -7 12 -20 12
-29 0 -10 7 -24 15 -32 13 -13 13 -16 0 -21 -8 -3 -15 -12 -15 -19 0 -19 -30
-45 -55 -47 -44 -5 -64 0 -59 14 3 9 -3 17 -17 21 -20 7 -21 8 -5 17 10 5 18
8 19 6 28 -54 66 -64 93 -23 21 33 13 91 -22 151 -29 49 -39 54 -47 24 -7 -26
-33 -36 -52 -20 -15 13 -12 30 7 30 5 0 7 -7 4 -16 -4 -11 -1 -14 12 -12 23 4
27 41 8 80 -25 50 -19 55 14 10 19 -26 38 -42 51 -42z m-81 29 c0 -5 -4 -9
-10 -9 -5 0 -10 7 -10 16 0 8 5 12 10 9 6 -3 10 -10 10 -16z m167 -45 c-3 -3
-12 -4 -19 -1 -8 3 -5 6 6 6 11 1 17 -2 13 -5z m1099 -128 c-28 -37 -34 -70
-14 -82 6 -4 17 1 24 11 8 10 17 15 21 12 13 -14 -24 -39 -46 -32 -16 5 -21
15 -21 40 0 19 5 37 10 40 6 3 10 15 10 26 0 13 7 19 21 19 21 0 21 -1 -5 -34z
m-1166 -124 c-8 -2 -30 -18 -47 -35 -18 -17 -33 -28 -33 -24 0 16 72 77 83 70
7 -4 6 -8 -3 -11z m95 -2 c10 -11 14 -20 8 -20 -5 0 -18 9 -28 20 -10 11 -14
20 -8 20 5 0 18 -9 28 -20z m255 0 c8 -5 11 -10 5 -10 -5 0 -17 5 -25 10 -8 5
-10 10 -5 10 6 0 17 -5 25 -10z m570 6 c0 -5 -79 -46 -88 -46 -4 0 11 12 33
25 38 24 55 30 55 21z m-930 -40 c0 -2 -8 -10 -17 -17 -16 -13 -17 -12 -4 4
13 16 21 21 21 13z m90 -41 c-13 -25 -30 -34 -30 -16 0 5 7 12 16 15 11 4 14
13 11 28 -4 15 -3 18 5 10 9 -9 8 -18 -2 -37z m40 16 c0 -30 -22 -61 -43 -61
-6 0 -1 7 11 16 14 10 22 25 22 45 0 16 2 29 5 29 3 0 5 -13 5 -29z m207 23
c-3 -3 -12 -4 -19 -1 -8 3 -5 6 6 6 11 1 17 -2 13 -5z m603 -4 c-8 -5 -24 -9
-35 -9 l-20 0 20 9 c11 5 27 9 35 9 13 1 13 0 0 -9z m-900 -31 c0 -10 -4 -19
-9 -19 -12 0 -23 29 -15 41 8 14 24 0 24 -22z m337 25 c-3 -3 -12 -4 -19 -1
-8 3 -5 6 6 6 11 1 17 -2 13 -5z m453 2 c0 -2 -7 -7 -16 -10 -8 -3 -12 -2 -9
4 6 10 25 14 25 6z m420 -26 c0 -11 -4 -20 -10 -20 -5 0 -10 9 -10 20 0 11 5
20 10 20 6 0 10 -9 10 -20z m-907 -7 c-7 -2 -21 -2 -30 0 -10 3 -4 5 12 5 17
0 24 -2 18 -5z m325 -9 c26 -18 30 -65 6 -88 -25 -25 -71 -20 -90 10 -29 43
-6 81 56 93 3 1 16 -6 28 -15z m169 10 c-3 -3 -12 -4 -19 -1 -8 3 -5 6 6 6 11
1 17 -2 13 -5z m116 -1 c-7 -2 -19 -2 -25 0 -7 3 -2 5 12 5 14 0 19 -2 13 -5z
m-953 -19 c0 -8 -4 -12 -10 -9 -5 3 -10 10 -10 16 0 5 5 9 10 9 6 0 10 -7 10
-16z m387 10 c-3 -3 -12 -4 -19 -1 -8 3 -5 6 6 6 11 1 17 -2 13 -5z m516 -1
c-7 -2 -19 -2 -25 0 -7 3 -2 5 12 5 14 0 19 -2 13 -5z m373 -20 c-10 -10 -19
5 -10 18 6 11 8 11 12 0 2 -7 1 -15 -2 -18z m-1340 -9 c-8 -21 10 -52 52 -91
19 -18 31 -33 26 -33 -14 1 -56 41 -83 78 -18 26 -21 36 -11 47 16 20 24 19
16 -1z m786 -14 c3 -17 1 -33 -4 -36 -4 -3 -8 11 -8 30 0 44 6 47 12 6z m-354
13 c-16 -2 -40 -2 -55 0 -16 2 -3 4 27 4 30 0 43 -2 28 -4z m580 0 c-15 -2
-42 -2 -60 0 -18 2 -6 4 27 4 33 0 48 -2 33 -4z m-960 -19 c-9 -9 -21 -13 -27
-10 -20 13 -11 26 16 26 25 0 26 -1 11 -16z m1332 1 c0 -9 -9 -15 -25 -15 -24
0 -32 10 -18 23 12 13 43 7 43 -8z m-1202 -24 c21 -18 31 -61 14 -61 -5 0 -15
-11 -22 -25 -25 -47 -108 -42 -157 11 -35 38 -28 42 10 6 47 -46 97 -53 131
-19 29 29 32 53 11 81 -12 16 -17 17 -30 6 -14 -12 -22 0 -8 13 11 11 27 7 51
-12z m159 -28 c-3 -10 -5 -2 -5 17 0 19 2 27 5 18 2 -10 2 -26 0 -35z m-275
15 c-6 -6 -15 -8 -19 -4 -4 4 -1 11 7 16 19 12 27 3 12 -12z m366 15 c-16 -2
-40 -2 -55 0 -16 2 -3 4 27 4 30 0 43 -2 28 -4z m585 0 c-13 -2 -33 -2 -45 0
-13 2 -3 4 22 4 25 0 35 -2 23 -4z m327 -19 c0 -8 -4 -12 -10 -9 -5 3 -10 10
-10 16 0 5 5 9 10 9 6 0 10 -7 10 -16z m-1240 -6 c0 -7 -4 -19 -9 -27 -11 -17
-23 1 -15 23 7 19 24 21 24 4z m1210 -19 c0 -10 -4 -19 -10 -19 -5 0 -10 12
-10 26 0 14 4 23 10 19 6 -3 10 -15 10 -26z m-1150 -3 c0 -8 -8 -20 -17 -27
-16 -13 -17 -12 -4 3 7 10 11 25 7 33 -3 9 -2 13 4 10 6 -3 10 -12 10 -19z
m293 17 c-7 -2 -19 -2 -25 0 -7 3 -2 5 12 5 14 0 19 -2 13 -5z m-60 -10 c-7
-2 -19 -2 -25 0 -7 3 -2 5 12 5 14 0 19 -2 13 -5z m131 -2 c4 -5 -3 -7 -14 -4
-23 6 -26 13 -6 13 8 0 17 -4 20 -9z m373 3 c-3 -3 -12 -4 -19 -1 -8 3 -5 6 6
6 11 1 17 -2 13 -5z m126 -1 c-7 -2 -19 -2 -25 0 -7 3 -2 5 12 5 14 0 19 -2
13 -5z m-598 -32 c-22 -10 -44 -16 -50 -13 -5 4 8 12 30 18 58 18 66 15 20 -5z
m580 -1 c13 -5 14 -9 5 -9 -8 0 -24 4 -35 9 -13 5 -14 9 -5 9 8 0 24 -4 35 -9z
m-890 -20 c3 -6 -1 -7 -9 -4 -18 7 -21 14 -7 14 6 0 13 -4 16 -10z m312 -16
c-16 -9 -31 -13 -34 -10 -3 3 5 10 18 15 37 15 47 12 16 -5z m548 6 c13 -6 15
-9 5 -9 -8 0 -22 4 -30 9 -18 12 -2 12 25 0z m-585 -53 c0 -5 -4 -5 -10 -2 -5
3 -10 14 -10 23 0 15 2 15 10 2 5 -8 10 -19 10 -23z m-300 -4 c17 -22 20 -34
14 -71 l-7 -45 25 19 c38 28 61 73 47 90 -16 19 -33 18 -25 -2 4 -10 1 -14 -6
-12 -21 7 -20 35 1 41 20 5 64 -24 61 -40 -1 -4 -11 -20 -22 -35 -10 -16 -16
-32 -13 -38 3 -5 -1 -10 -10 -10 -9 0 -27 -8 -40 -19 l-24 -18 25 -12 c33 -15
51 -14 57 3 4 10 1 13 -9 9 -8 -3 -14 1 -14 11 0 20 14 21 30 1 20 -24 -6 -47
-49 -44 -61 3 -72 0 -69 -18 2 -12 -4 -19 -20 -21 -12 -2 -27 -12 -32 -23 -17
-30 -30 -22 -17 10 8 23 8 33 -2 45 -17 20 -35 21 -27 1 6 -17 -9 -21 -20 -4
-3 6 1 18 10 27 14 14 17 14 36 -3 11 -10 20 -24 20 -32 0 -40 51 29 69 93 16
57 14 81 -9 104 -11 11 -16 20 -11 20 5 0 19 -12 31 -27z m616 -17 c6 -24 4
-28 -9 -23 -9 3 -18 1 -21 -6 -2 -7 -5 -4 -5 6 -1 10 6 17 16 17 13 0 14 3 5
12 -7 7 -12 19 -12 27 0 23 17 1 26 -33z m169 24 c3 -6 -1 -7 -9 -4 -18 7 -21
14 -7 14 6 0 13 -4 16 -10z m385 -9 c0 -11 -4 -23 -10 -26 -5 -3 -7 0 -4 8 7
20 -16 33 -27 16 -16 -26 -9 -49 27 -89 40 -44 59 -51 49 -19 -5 15 -4 19 4
15 6 -4 11 -13 11 -21 0 -20 43 -84 56 -85 7 0 14 9 17 21 4 16 12 20 34 17
29 -3 39 -28 14 -36 -10 -3 -12 0 -8 12 5 12 1 16 -15 16 -19 0 -20 -4 -15
-52 5 -43 4 -49 -5 -33 -18 31 -41 45 -63 38 -18 -5 -18 -4 -6 11 21 25 0 36
-66 36 -45 0 -53 3 -53 19 0 21 23 45 33 34 12 -11 8 -23 -8 -23 -8 0 -15 -4
-15 -10 0 -5 18 -10 40 -10 49 0 50 10 6 41 -39 26 -56 56 -56 98 0 34 6 41
37 41 16 0 23 -6 23 -19z m-415 -13 c29 -13 36 -51 8 -41 -23 8 -53 34 -53 45
0 11 14 10 45 -4z m518 6 c11 -11 -3 -24 -18 -18 -8 4 -12 10 -9 15 6 11 18
12 27 3z m-900 -34 c-15 -16 -32 -30 -38 -30 -5 0 5 14 23 30 18 17 36 30 38
30 3 0 -7 -13 -23 -30z m451 14 c16 -16 13 -34 -6 -34 -5 0 -8 6 -5 14 3 7 0
19 -6 25 -6 6 -8 11 -5 11 4 0 14 -7 22 -16z m-194 -41 c0 -5 -11 -8 -25 -8
-14 0 -25 3 -25 8 0 4 11 7 25 7 14 0 25 -3 25 -7z m270 -56 c0 -12 0 -11 -24
28 l-17 30 20 -24 c12 -13 21 -28 21 -34z m-308 21 c-14 -14 -16 -32 -4 -24 5
3 9 -1 9 -9 0 -10 -5 -11 -19 -4 -23 12 -23 25 0 38 23 14 29 14 14 -1z m41
-11 c3 -8 1 -20 -4 -28 -6 -10 -9 -7 -9 14 0 29 5 35 13 14z m646 -6 c15 -28
-21 -35 -38 -8 -11 17 -11 19 3 14 9 -4 16 -2 16 3 0 16 8 12 19 -9z m-731
-66 c2 -33 7 -62 11 -65 13 -8 31 -47 31 -65 0 -25 -40 -15 -62 16 -18 23 -19
36 -13 103 9 92 28 98 33 11z m128 43 c1 -13 7 -41 12 -63 10 -34 8 -45 -11
-80 -36 -65 -90 -57 -56 8 7 12 17 25 23 29 6 4 11 33 12 65 2 67 2 63 12 63
4 0 8 -10 8 -22z m184 2 c0 -5 -4 -10 -10 -10 -5 0 -10 5 -10 10 0 6 5 10 10
10 6 0 10 -4 10 -10z m-230 -31 c0 -4 -11 -9 -25 -11 -15 -3 -25 -1 -25 6 0 6
11 11 25 11 14 0 25 -3 25 -6z m297 -21 c-3 -8 -6 -5 -6 6 -1 11 2 17 5 13 3
-3 4 -12 1 -19z m-597 2 c0 -5 -5 -10 -11 -10 -5 0 -7 5 -4 10 3 6 8 10 11 10
2 0 4 -4 4 -10z m885 0 c-3 -5 -10 -10 -16 -10 -5 0 -9 5 -9 10 0 6 7 10 16
10 8 0 12 -4 9 -10z m-1140 -27 c31 -34 32 -64 5 -175 -22 -93 -24 -118 -10
-118 5 0 7 7 4 15 -4 8 -2 15 4 15 5 0 13 -7 16 -15 8 -21 -22 -31 -45 -16
-15 9 -19 8 -20 -1 0 -10 -2 -10 -5 -1 -3 7 -12 9 -20 6 -17 -6 -18 1 -3 29 9
18 8 19 -10 13 -15 -5 -21 -2 -21 9 0 9 -7 16 -16 16 -13 0 -14 3 -4 15 6 8 9
19 5 25 -3 5 2 10 14 10 32 0 51 -11 51 -30 0 -11 5 -22 11 -25 17 -11 19 -1
4 28 -12 24 -12 29 0 34 31 11 13 23 -36 23 -27 0 -48 4 -45 9 7 10 -15 71
-26 71 -4 0 -11 -19 -16 -42 -6 -28 -10 -34 -11 -19 -2 38 38 113 56 107 8 -4
28 2 43 11 28 16 30 16 51 -3 16 -14 21 -15 17 -4 -2 8 -15 21 -29 27 -17 9
-19 13 -7 13 9 0 29 -12 43 -27z m545 8 c0 -6 -9 -9 -20 -8 -11 1 -20 5 -20 9
0 4 9 8 20 8 11 0 20 -4 20 -9z m526 -12 c-14 -11 -26 -28 -25 -37 0 -14 3
-13 16 6 22 32 37 27 16 -5 -10 -16 -21 -31 -26 -34 -12 -8 8 -45 31 -58 16
-10 16 -10 -2 -11 -17 0 -18 -5 -12 -46 3 -26 6 -54 6 -62 0 -13 3 -13 19 2
18 16 18 15 18 -26 0 -24 -2 -37 -4 -30 -3 9 -15 11 -39 6 -30 -5 -34 -4 -34
15 0 12 6 21 15 21 19 0 19 41 0 95 -31 85 -13 185 33 185 9 0 5 -8 -12 -21z
m118 -25 c3 -8 2 -12 -4 -9 -6 3 -10 10 -10 16 0 14 7 11 14 -7z m75 -16 c-11
-41 -11 -71 1 -43 5 12 8 -22 8 -90 l-1 -110 -13 105 c-12 103 -10 170 6 170
5 0 4 -15 -1 -32z m-729 13 c0 -6 -4 -13 -10 -16 -5 -3 -10 1 -10 9 0 9 5 16
10 16 6 0 10 -4 10 -9z m632 -8 c19 -17 22 -41 12 -80 -5 -17 -14 -23 -33 -23
-22 1 -24 2 -8 11 25 15 21 30 -5 20 -26 -9 -68 3 -68 19 0 16 21 54 34 62 19
13 49 9 68 -9z m57 -67 c-2 -27 -2 -28 -6 -6 -3 14 -9 29 -14 35 -15 15 -10
28 6 15 8 -7 14 -27 14 -44z m-372 -38 c-3 -7 -5 -2 -5 12 0 14 2 19 5 13 2
-7 2 -19 0 -25z m-381 -4 c-8 -30 1 -67 14 -59 5 3 6 21 3 40 -5 30 -3 35 21
41 37 9 59 -12 52 -49 -4 -20 -2 -27 7 -24 7 2 11 19 10 43 l-2 39 24 -27 c20
-24 22 -32 14 -60 -8 -31 -32 -58 -51 -58 -13 0 -9 -60 5 -61 10 0 10 -2 0 -6
-7 -2 -13 -11 -13 -20 0 -8 -7 -13 -17 -11 -23 4 -28 26 -6 31 10 2 7 4 -7 3
-23 -2 -25 1 -22 36 4 32 1 38 -15 38 -21 0 -46 23 -56 51 -5 16 26 79 39 79
3 0 3 -12 0 -26z m-259 -16 c-3 -8 -6 -5 -6 6 -1 11 2 17 5 13 3 -3 4 -12 1
-19z m-365 -33 c-6 -55 17 -85 88 -119 85 -40 170 -99 190 -131 28 -45 26 -63
-7 -67 -17 -2 -29 -10 -31 -20 -4 -23 17 -23 34 0 13 16 13 16 14 -2 0 -16 3
-15 21 7 18 23 23 25 42 14 37 -21 47 -40 28 -54 -21 -16 -39 -17 -23 -1 7 7
12 16 12 20 0 15 -27 8 -46 -13 -16 -17 -16 -22 -4 -30 12 -8 10 -9 -6 -4 -13
3 -26 -1 -34 -10 -19 -23 -37 -18 -76 20 -21 21 -44 35 -59 35 -35 0 -31 -13
11 -33 60 -29 65 -38 31 -62 -42 -28 -45 -45 -9 -45 22 0 36 -9 57 -36 32 -42
29 -55 -5 -19 -29 31 -60 33 -60 4 0 -18 2 -19 15 -9 9 7 18 10 22 7 10 -10
-17 -36 -32 -31 -10 4 -12 0 -8 -15 3 -12 0 -28 -7 -36 -11 -13 -15 -12 -31 9
-17 22 -17 27 -4 52 12 25 12 29 -3 40 -14 10 -19 10 -25 -2 -4 -8 -15 -14
-24 -14 -9 0 -13 -6 -9 -15 6 -17 -2 -19 -24 -5 -9 6 -11 13 -5 18 6 4 11 14
13 22 2 8 7 16 12 18 5 2 7 16 4 32 -5 20 1 38 20 66 30 44 26 57 -7 26 -13
-12 -30 -22 -38 -22 -10 1 -9 3 4 11 9 5 17 16 17 23 0 8 8 13 18 12 11 -1 17
6 17 19 0 15 -6 19 -24 17 -20 -2 -22 0 -11 12 14 18 5 52 -16 60 -11 4 -13
-1 -9 -22 l5 -27 -11 28 c-6 15 -15 27 -20 27 -13 0 -11 -14 3 -28 9 -9 7 -12
-11 -12 -18 0 -21 -3 -13 -13 8 -10 6 -16 -9 -25 -10 -7 -19 -22 -19 -34 0
-17 -3 -19 -12 -10 -9 9 -9 17 2 36 8 15 11 41 7 66 l-5 42 21 -19 c17 -14 19
-14 9 -1 -8 10 -9 19 -3 22 5 3 12 0 14 -6 10 -24 7 27 -3 61 -5 19 -8 37 -5
39 3 3 8 -9 11 -26 7 -34 21 -42 30 -17 4 8 10 15 15 15 6 0 5 -9 -1 -21 -7
-11 -10 -22 -8 -23 2 -1 18 -15 37 -30 34 -27 35 -28 43 -7 4 12 16 21 28 21
23 0 27 -15 5 -24 -8 -3 -15 -10 -15 -16 0 -5 7 -10 15 -10 8 0 15 -6 15 -14
0 -24 18 -28 29 -8 13 25 -20 94 -53 111 -20 11 -28 10 -50 -4 -30 -20 -37 -3
-9 27 15 17 15 18 -13 18 -34 0 -76 20 -82 39 -3 10 2 11 19 6 24 -6 24 -6 -2
18 -45 41 -47 117 -4 117 9 0 11 -13 7 -45z m995 13 c-3 -8 -6 -5 -6 6 -1 11
2 17 5 13 3 -3 4 -12 1 -19z m273 -1 c0 -2 -8 -3 -18 -3 -10 0 -19 6 -19 13 0
8 6 9 19 2 10 -5 18 -11 18 -12z m125 9 c17 -12 17 -16 5 -47 -14 -32 -50 -72
-59 -63 -2 2 4 13 14 24 17 19 17 42 0 83 -9 21 13 23 40 3z m-62 -21 c-3 -8
0 -15 7 -15 7 0 1 -11 -15 -26 -15 -14 -28 -24 -29 -22 0 2 -7 13 -13 25 -17
29 -16 34 2 27 11 -4 13 -2 9 9 -3 10 1 17 13 19 25 6 33 0 26 -17z m-523 -35
c0 -11 9 -29 20 -40 11 -11 20 -27 20 -35 0 -12 -6 -12 -46 0 -57 17 -62 22
-46 43 7 9 15 25 18 35 9 24 34 22 34 -3z m163 5 c-3 -9 -8 -14 -10 -11 -3 3
-2 9 2 15 9 16 15 13 8 -4z m-378 -22 c22 -26 22 -29 8 -46 -9 -9 -34 -20 -55
-23 -22 -4 -35 -11 -31 -17 3 -6 1 -7 -5 -3 -15 9 2 54 29 79 10 10 19 22 19
27 0 16 10 11 35 -17z m-630 -113 c4 -23 2 -30 -4 -20 -5 8 -11 44 -14 80 -5
57 -5 59 3 20 5 -25 12 -61 15 -80z m1331 73 c-7 -7 -26 7 -26 19 0 6 6 6 15
-2 9 -7 13 -15 11 -17z m94 -14 c0 -7 -81 -54 -87 -50 -2 0 -9 1 -15 1 -7 0
-5 -5 5 -11 9 -5 17 -17 17 -26 0 -14 -2 -14 -20 2 -46 42 -140 -38 -116 -100
8 -22 26 -18 26 6 0 14 5 19 15 16 24 -10 27 11 4 23 -14 8 -18 15 -11 22 14
14 52 0 52 -18 0 -12 8 -11 39 7 38 21 39 23 24 45 -9 14 -11 24 -5 24 6 0 15
-7 20 -16 12 -22 32 -9 32 22 0 13 4 24 9 24 5 0 5 -17 0 -41 -6 -23 -8 -44
-5 -46 2 -2 7 11 11 29 4 18 11 38 15 43 5 6 10 21 13 35 3 19 5 16 6 -12 0
-20 4 -44 8 -54 4 -11 3 -15 -5 -10 -13 8 -33 -25 -41 -68 -7 -33 -31 -48 -31
-19 -1 10 -10 -2 -22 -27 -12 -25 -23 -39 -25 -32 -7 18 -31 15 -42 -7 -6 -10
-26 -22 -45 -25 -18 -4 -45 -18 -60 -32 -20 -21 -31 -25 -53 -19 -61 15 -92
17 -110 6 -16 -9 -16 -10 7 -11 14 0 39 -9 55 -20 37 -25 55 -25 56 -2 0 10 3
12 6 5 2 -7 11 -13 18 -13 8 0 17 -5 21 -12 4 -7 3 -8 -5 -4 -14 9 -51 -2 -51
-15 0 -5 9 -9 21 -9 11 0 17 -5 14 -10 -4 -6 -11 -8 -16 -5 -5 4 -9 -2 -9 -12
-1 -13 -5 -9 -17 12 -18 35 -60 75 -79 75 -7 0 -28 -13 -46 -30 -18 -17 -38
-30 -44 -30 -7 0 -14 -7 -18 -15 -3 -8 -13 -15 -23 -15 -17 -1 -16 -2 1 -15
20 -15 20 -15 0 -15 -32 -1 -66 -34 -62 -61 3 -27 38 -40 38 -15 0 9 -5 16
-11 16 -5 0 -7 5 -3 11 3 6 19 9 34 5 22 -4 29 -1 33 14 6 21 27 28 27 8 0
-24 34 -48 67 -48 18 0 33 -4 33 -10 0 -5 -3 -10 -7 -11 -43 -4 -63 -3 -63 4
0 5 -10 5 -22 2 -16 -6 -20 -4 -15 9 7 18 -8 32 -18 16 -4 -6 -11 -8 -16 -4
-6 3 -17 -3 -25 -15 -19 -27 -39 -27 -58 1 l-16 22 -20 -22 c-25 -26 -40 -28
-40 -6 0 15 -2 15 -26 0 -14 -10 -30 -16 -36 -14 -5 2 5 12 24 22 39 21 72 67
83 114 3 18 11 32 17 32 18 0 68 41 63 51 -4 5 2 8 12 7 10 0 32 0 48 1 23 1
27 3 15 11 -20 13 -180 13 -180 0 0 -10 13 -14 37 -11 7 1 9 -7 6 -19 -5 -20
-23 -28 -23 -10 0 5 -9 14 -21 20 -22 12 -49 -1 -49 -24 0 -6 8 -2 16 9 15 20
15 20 35 -5 38 -45 1 -127 -75 -167 -15 -8 -25 -10 -22 -5 3 5 -5 17 -19 26
-27 18 -33 15 -12 -6 11 -11 11 -16 -4 -31 -15 -17 -18 -17 -33 -2 -9 9 -16
21 -16 28 0 6 6 3 13 -8 8 -11 19 -15 26 -10 9 5 8 13 -7 29 -35 39 -61 92
-56 113 3 11 -1 27 -10 36 -22 21 -20 25 9 25 32 0 38 -10 25 -42 -7 -18 -5
-35 5 -58 8 -18 14 -26 15 -18 0 9 17 -4 38 -29 l38 -45 26 20 c28 20 68 86
68 110 0 9 -12 14 -34 14 -42 0 -54 15 -32 39 23 25 20 31 -17 31 -41 0 -52
-9 -30 -25 25 -18 9 -45 -26 -45 -25 0 -30 -5 -34 -27 -3 -16 -4 -4 -3 24 0
29 4 53 9 53 4 0 7 5 7 10 0 13 -177 13 -185 0 -4 -6 -12 -10 -18 -9 -19 3
-71 -12 -88 -24 -9 -7 -26 -28 -38 -47 -13 -22 -21 -29 -21 -18 0 12 -5 16
-17 12 -12 -4 -9 1 7 15 59 48 79 61 94 61 19 0 21 16 4 24 -7 4 -2 4 11 2 16
-3 30 3 45 19 21 23 28 24 118 21 52 -1 100 -6 106 -10 7 -4 18 -4 25 1 17 11
90 10 105 -1 9 -7 16 -6 21 3 6 10 12 9 25 -4 15 -15 16 -15 16 4 0 12 5 21
11 21 5 0 8 -4 5 -9 -3 -4 20 -11 51 -14 31 -3 61 -11 66 -16 6 -6 33 -11 61
-11 48 0 49 0 31 20 -22 25 -51 26 -64 3 -9 -16 -10 -16 -11 3 0 41 70 70 88
37 6 -10 13 -15 17 -11 3 3 1 15 -6 25 -9 15 -8 26 5 51 21 41 64 73 161 118
44 21 81 41 83 44 4 10 72 9 72 -1z m-580 -59 c-8 -5 -24 -9 -35 -9 -16 1 -16
2 5 9 35 11 48 11 30 0z m-103 -16 c-3 -3 -12 -4 -19 -1 -8 3 -5 6 6 6 11 1
17 -2 13 -5z m716 -61 c-16 -6 -17 -85 -1 -101 9 -9 8 -17 -2 -37 -7 -14 -18
-25 -23 -25 -5 0 -4 7 3 15 20 24 -3 65 -35 65 -16 0 -25 -6 -25 -15 0 -8 5
-15 11 -15 5 0 7 -5 3 -12 -5 -8 -11 -5 -20 7 -17 23 -1 45 33 45 13 0 22 4
19 9 -10 16 15 71 32 70 11 0 12 -2 5 -6z m-1388 -112 c-3 -6 -14 -11 -23 -11
-13 0 -13 2 4 14 21 15 30 14 19 -3z m1280 -49 c-2 -2 -11 2 -19 11 -8 8 -12
18 -8 21 3 4 12 -1 19 -10 7 -10 11 -20 8 -22z m-1330 8 c3 -6 -1 -7 -9 -4
-18 7 -21 14 -7 14 6 0 13 -4 16 -10z m1296 -21 c12 -18 22 -46 22 -63 0 -17
9 -39 19 -50 21 -23 24 -46 5 -46 -21 0 -57 30 -57 48 0 12 -3 13 -8 5 -4 -6
-32 -13 -62 -15 -42 -2 -55 -7 -54 -18 1 -9 -7 -16 -17 -16 -25 0 -24 15 3 43
14 15 33 23 55 23 18 0 33 3 33 7 0 12 -43 53 -57 53 -24 0 -14 16 25 38 50
29 67 28 93 -9z m-1224 -13 c3 -3 -7 -11 -23 -18 -16 -7 -31 -15 -34 -19 -9
-11 -50 10 -50 25 0 20 90 30 107 12z m1278 4 c-3 -5 1 -10 9 -10 9 0 16 5 16
10 0 6 7 10 15 10 8 0 15 -4 15 -10 0 -5 7 -10 15 -10 21 0 19 -27 -3 -34 -20
-7 -92 19 -92 32 0 11 11 22 22 22 5 0 6 -4 3 -10z m-829 -27 c24 -16 44 -32
44 -37 0 -5 -7 -3 -15 4 -27 22 -28 2 -2 -29 38 -46 44 -87 16 -117 -12 -13
-27 -24 -32 -24 -5 0 1 9 14 19 21 17 22 21 11 43 -7 13 -12 30 -10 37 2 8 -3
16 -11 19 -8 3 -11 0 -7 -7 5 -7 -4 -11 -26 -10 -18 1 -25 3 -15 6 21 5 23 23
2 23 -8 0 -15 7 -15 15 0 8 -6 15 -13 15 -7 0 -26 13 -41 29 l-28 29 28 5 c16
2 35 5 43 6 8 0 33 -11 57 -26z m344 23 c0 -2 -7 -7 -16 -10 -8 -3 -12 -2 -9
4 6 10 25 14 25 6z m-590 -20 c0 -7 -11 -16 -25 -18 -17 -4 -25 -1 -25 9 0 8
4 12 9 8 5 -3 12 -1 16 5 9 15 25 12 25 -4z m-251 -51 c8 -8 11 -18 7 -22 -4
-4 -11 -1 -16 7 -6 8 -10 11 -11 5 -6 -35 -2 -52 16 -63 16 -10 16 -12 3 -8
-12 3 -18 0 -18 -9 0 -9 6 -12 15 -9 9 4 15 0 15 -8 0 -10 11 -13 38 -10 39 3
72 -11 58 -25 -5 -4 -11 -2 -13 5 -3 6 -9 12 -15 12 -6 0 -8 -7 -4 -15 3 -9 0
-15 -9 -15 -8 0 -15 7 -15 16 0 14 -2 14 -22 0 -48 -34 -94 -6 -84 50 4 20 2
35 -5 39 -7 5 -8 10 -1 14 15 9 19 46 5 44 -7 -2 -13 2 -13 8 0 15 50 3 69
-16z m361 10 c0 -8 -7 -15 -15 -15 -9 0 -18 -7 -21 -15 -4 -8 -11 -15 -16 -15
-6 0 -5 6 2 15 7 8 9 15 4 15 -7 0 27 22 44 29 1 1 2 -6 2 -14z m1065 -5 c0
-9 -7 -14 -17 -12 -20 3 -22 -6 -9 -27 6 -9 6 -22 1 -31 -6 -11 -5 -21 1 -27
16 -16 7 -58 -14 -59 -12 -1 -13 -1 -2 3 8 2 15 14 15 25 0 13 -5 18 -14 15
-8 -3 -16 2 -19 14 -3 10 0 19 5 19 7 0 6 5 -1 14 -9 11 -9 15 1 19 10 4 11 7
1 18 -10 9 -13 10 -13 1 0 -7 -4 -12 -10 -12 -21 0 -9 28 15 34 14 4 25 11 25
17 0 6 8 9 18 7 9 -2 17 -10 17 -18z m-786 -11 c-7 -4 -17 -5 -22 -2 -5 3 -3
9 4 14 7 4 17 5 22 2 5 -3 3 -9 -4 -14z m89 3 c2 -7 -2 -10 -12 -6 -9 3 -16
11 -16 16 0 13 23 5 28 -10z m-338 -2 c0 -5 -5 -10 -11 -10 -5 0 -7 5 -4 10 3
6 8 10 11 10 2 0 4 -4 4 -10z m585 0 c3 -5 -1 -10 -9 -10 -9 0 -16 5 -16 10 0
6 4 10 9 10 6 0 13 -4 16 -10z m62 3 c-4 -3 -2 -12 5 -20 9 -12 4 -33 -6 -22
-12 14 -16 49 -5 49 7 0 9 -3 6 -7z m-681 -40 c-10 -10 -19 5 -10 18 6 11 8
11 12 0 2 -7 1 -15 -2 -18z m334 -30 c0 -7 -7 -13 -15 -13 -10 0 -15 10 -15
28 0 19 -3 23 -9 13 -5 -7 -14 -10 -20 -6 -9 5 -7 11 6 20 16 12 20 11 35 -8
10 -12 18 -28 18 -34z m-290 37 c0 -5 -5 -10 -11 -10 -5 0 -7 5 -4 10 3 6 8
10 11 10 2 0 4 -4 4 -10z m315 1 c3 -5 1 -12 -4 -15 -5 -3 -11 1 -15 9 -6 16
9 21 19 6z m290 -1 c3 -5 1 -10 -4 -10 -6 0 -11 5 -11 10 0 6 2 10 4 10 3 0 8
-4 11 -10z m-557 -58 c15 -24 15 -24 -5 -18 -12 4 -24 2 -28 -4 -3 -5 -1 -10
5 -10 6 0 8 -5 5 -10 -5 -8 -11 -7 -21 1 -11 9 -14 8 -14 -3 0 -17 -45 -17
-62 0 -7 7 -17 12 -24 12 -18 0 -35 26 -28 43 4 11 11 13 22 7 71 -37 85 -41
104 -24 10 10 19 29 19 43 1 20 2 22 6 6 3 -10 12 -30 21 -43z m-126 26 c-7
-7 -12 -8 -12 -2 0 6 3 14 7 17 3 4 9 5 12 2 2 -3 -1 -11 -7 -17z m63 2 c3 -5
1 -10 -4 -10 -6 0 -11 5 -11 10 0 6 2 10 4 10 3 0 8 -4 11 -10z m655 0 c0 -5
-4 -10 -10 -10 -5 0 -10 5 -10 10 0 6 5 10 10 10 6 0 10 -4 10 -10z m130 0 c0
-5 -4 -10 -10 -10 -5 0 -10 5 -10 10 0 6 5 10 10 10 6 0 10 -4 10 -10z m-810
-10 c0 -5 -4 -10 -10 -10 -5 0 -10 5 -10 10 0 6 5 10 10 10 6 0 10 -4 10 -10z
m645 0 c3 -5 1 -10 -4 -10 -6 0 -11 5 -11 10 0 6 2 10 4 10 3 0 8 -4 11 -10z
m61 -15 c-4 -35 -8 -37 -52 -26 -30 7 -33 9 -13 10 14 1 34 10 45 20 10 11 20
20 21 20 1 1 0 -10 -1 -24z m-581 -20 c2 -14 -1 -23 -6 -19 -5 3 -9 17 -9 31
0 32 12 23 15 -12z m-249 0 c-9 -21 -13 -23 -22 -10 -6 8 -14 12 -18 8 -4 -4
-4 -1 -1 8 3 8 16 16 29 17 22 1 23 0 12 -23z m932 -2 c2 -8 -5 -13 -16 -13
-11 0 -22 -6 -25 -12 -5 -16 -13 -10 -22 20 -6 22 -4 23 26 20 18 -2 34 -9 37
-15z"/>
<path d="M280 2735 c0 -8 2 -15 4 -15 2 0 6 7 10 15 3 8 1 15 -4 15 -6 0 -10
-7 -10 -15z"/>
<path d="M1585 2770 c-3 -5 1 -10 9 -10 9 0 16 5 16 10 0 6 -4 10 -9 10 -6 0
-13 -4 -16 -10z"/>
<path d="M1660 2774 c0 -10 31 -36 37 -31 10 10 -6 37 -22 37 -8 0 -15 -3 -15
-6z"/>
<path d="M1661 2734 c0 -11 3 -14 6 -6 3 7 2 16 -1 19 -3 4 -6 -2 -5 -13z"/>
<path d="M392 2601 c-21 -13 29 -50 53 -41 16 7 17 9 3 9 -9 1 -23 10 -30 20
-8 12 -19 17 -26 12z"/>
<path d="M1536 2579 c-9 -12 -16 -23 -13 -25 2 -2 12 5 22 16 10 11 16 22 14
25 -3 2 -13 -5 -23 -16z"/>
<path d="M814 2305 c-83 -40 -124 -83 -165 -169 -38 -81 -40 -193 -5 -275 53
-124 146 -190 299 -214 79 -13 89 -13 95 1 3 9 0 18 -6 20 -17 5 10 54 44 81
47 37 73 -11 37 -66 l-18 -27 44 24 c62 35 136 111 162 168 13 29 23 76 27
124 7 111 -21 182 -102 263 -79 79 -144 105 -259 105 -72 -1 -90 -5 -153 -35z
m184 8 c-10 -2 -26 -2 -35 0 -10 3 -2 5 17 5 19 0 27 -2 18 -5z m-111 -9 c-3
-3 -12 -4 -19 -1 -8 3 -5 6 6 6 11 1 17 -2 13 -5z m218 -4 c25 -11 -1 -11 -35
0 -20 6 -21 8 -5 8 11 0 29 -3 40 -8z m-115 -14 c0 -9 -8 -12 -25 -8 -14 2
-25 8 -25 13 0 5 11 9 25 9 14 0 25 -6 25 -14z m-185 -16 c-3 -5 -12 -10 -18
-10 -7 0 -6 4 3 10 19 12 23 12 15 0z m380 -20 c21 -16 33 -30 27 -30 -6 0
-14 5 -18 11 -3 6 -20 19 -38 30 -17 10 -26 19 -20 19 6 0 28 -13 49 -30z
m-197 7 c6 -7 9 -23 5 -35 -4 -17 -1 -22 15 -22 21 0 62 -43 62 -64 0 -6 -10
-24 -21 -41 l-21 -30 5 29 c5 32 0 56 -13 56 -5 0 -6 -15 -3 -33 4 -28 1 -35
-19 -44 -16 -7 -30 -7 -46 0 -20 9 -23 16 -19 44 3 18 2 33 -3 33 -13 0 -20
-30 -13 -58 6 -27 6 -27 -16 -8 -36 32 -26 87 19 111 21 11 27 20 23 36 -9 31
25 51 45 26z m-257 -48 c-23 -24 -41 -39 -41 -35 0 10 73 85 79 81 1 -2 -15
-23 -38 -46z m154 31 c15 -6 25 -13 23 -18 -13 -27 -44 -72 -50 -72 -4 0 -10
11 -14 25 -3 13 -12 29 -20 36 -8 6 -14 20 -14 31 0 21 15 21 75 -2z m255 0
c0 -11 -7 -23 -16 -27 -8 -3 -20 -16 -25 -29 -12 -33 -21 -30 -43 11 -19 35
-19 36 0 50 10 8 34 15 52 15 26 0 32 -4 32 -20z m123 -72 c26 -45 15 -44 -15
1 -14 22 -21 38 -14 35 6 -2 19 -18 29 -36z m37 -92 c0 -26 -6 -18 -14 19 -5
22 -4 26 4 15 5 -8 10 -24 10 -34z m-643 2 c-3 -8 -6 -5 -6 6 -1 11 2 17 5 13
3 -3 4 -12 1 -19z m303 -42 c0 -13 -9 -35 -20 -48 -13 -17 -20 -44 -22 -83 -4
-84 -24 -82 -33 3 -5 48 -3 77 5 93 31 59 70 78 70 35z m79 -5 c12 -16 22 -37
23 -47 4 -31 -13 -134 -22 -134 -4 0 -11 28 -15 62 -5 37 -16 73 -28 89 -21
29 -18 59 7 59 8 0 24 -13 35 -29z m268 -28 c-3 -10 -5 -4 -5 12 0 17 2 24 5
18 2 -7 2 -21 0 -30z m-320 -51 c2 -23 -1 -32 -13 -32 -8 0 -12 -5 -9 -11 4
-6 13 -8 20 -5 16 6 25 -45 14 -88 -5 -21 -7 -24 -8 -10 -1 17 -6 20 -25 17
-16 -3 -25 1 -30 13 -8 21 18 46 40 37 8 -3 14 0 14 6 0 6 -10 11 -23 11 -20
0 -23 4 -19 30 2 17 8 30 12 30 5 0 6 10 3 21 -4 16 -2 20 8 17 7 -2 15 -19
16 -36z m281 -33 c-2 -6 -8 -10 -13 -10 -5 0 -11 4 -13 10 -2 6 4 11 13 11 9
0 15 -5 13 -11z m29 -21 c-3 -8 -6 -5 -6 6 -1 11 2 17 5 13 3 -3 4 -12 1 -19z
m-640 -10 c-3 -8 -6 -5 -6 6 -1 11 2 17 5 13 3 -3 4 -12 1 -19z m68 -18 c3 -5
2 -10 -4 -10 -5 0 -13 5 -16 10 -3 6 -2 10 4 10 5 0 13 -4 16 -10z m452 -22
c-3 -8 -6 -5 -6 6 -1 11 2 17 5 13 3 -3 4 -12 1 -19z m-197 -48 c0 -5 -7 -10
-15 -10 -8 0 -15 5 -15 10 0 6 7 10 15 10 8 0 15 -4 15 -10z m230 0 c0 -5 -4
-10 -10 -10 -5 0 -10 5 -10 10 0 6 5 10 10 10 6 0 10 -4 10 -10z m-454 -26
c-4 -10 1 -22 11 -31 17 -13 16 -13 -3 -4 -11 5 -27 18 -35 27 -9 12 -9 15 -1
10 6 -4 12 -2 12 3 0 6 5 11 11 11 6 0 8 -7 5 -16z m394 6 c0 -5 -4 -10 -10
-10 -5 0 -10 5 -10 10 0 6 5 10 10 10 6 0 10 -4 10 -10z m-167 -39 c-10 -45
-17 -44 -27 6 -7 28 -5 31 13 26 17 -4 20 -11 14 -32z m-145 12 c2 -8 -5 -13
-17 -13 -12 0 -21 6 -21 16 0 18 31 15 38 -3z m362 -7 c0 -2 -12 -12 -27 -21
l-28 -18 19 21 c17 20 36 29 36 18z m-207 -83 c-7 -2 -21 -2 -30 0 -10 3 -4 5
12 5 17 0 24 -2 18 -5z"/>
<path d="M970 1850 c0 -5 5 -10 10 -10 6 0 10 5 10 10 0 6 -4 10 -10 10 -5 0
-10 -4 -10 -10z"/>
<path d="M1583 2052 c27 -30 22 -53 -10 -50 -22 2 -27 -1 -25 -14 3 -19 -13
-25 -21 -8 -3 6 -4 5 -3 -2 3 -15 64 -12 84 4 19 16 15 66 -7 78 -29 15 -36
12 -18 -8z"/>
<path d="M1536 2038 c-9 -5 -16 -16 -16 -25 0 -15 2 -14 19 1 10 9 25 14 35
10 9 -3 16 -2 16 4 0 14 -34 21 -54 10z"/>
<path d="M1490 1970 c0 -5 5 -10 10 -10 6 0 10 5 10 10 0 6 -4 10 -10 10 -5 0
-10 -4 -10 -10z"/>
<path d="M401 1881 c-12 -8 -12 -12 -2 -25 17 -20 31 -21 31 -1 0 9 6 12 15 9
8 -4 15 -2 15 4 0 5 -7 13 -16 16 -21 8 -26 7 -43 -3z"/>
<path d="M948 1569 c-42 -24 -1 -92 41 -70 26 14 33 38 18 61 -13 22 -33 25
-59 9z m40 -31 c-6 -18 -28 -21 -28 -4 0 9 7 16 16 16 9 0 14 -5 12 -12z"/>
<path d="M390 1121 c0 -6 -6 -11 -13 -11 -25 0 -49 -27 -49 -53 0 -60 75 -79
111 -28 22 30 29 87 11 76 -6 -4 -10 -14 -8 -23 1 -10 -4 -27 -11 -40 -9 -18
-19 -22 -44 -20 -27 2 -33 8 -35 31 -3 26 11 37 23 17 12 -20 27 -10 23 15 -3
13 0 26 5 28 7 2 7 6 -1 11 -7 4 -12 2 -12 -3z"/>
<path d="M415 1078 c-7 -16 -17 -22 -33 -20 -29 3 -24 -22 5 -26 25 -4 46 20
41 48 -3 21 -3 21 -13 -2z"/>
<path d="M391 874 c0 -11 3 -14 6 -6 3 7 2 16 -1 19 -3 4 -6 -2 -5 -13z"/>
<path d="M1538 1078 c-10 -12 -18 -28 -18 -34 0 -7 8 -14 18 -16 27 -6 52 3
52 19 0 10 -6 13 -16 9 -14 -5 -15 -4 -4 9 15 18 30 11 30 -16 0 -10 5 -19 10
-19 14 0 13 43 -2 58 -19 19 -51 14 -70 -10z"/>
<path d="M413 518 c-23 -30 -24 -41 -2 -21 12 12 20 25 17 28 -3 3 -10 0 -15
-7z"/>
<path d="M1597 664 c-4 -4 -7 -14 -7 -23 0 -11 3 -12 11 -4 6 6 10 16 7 23 -2
6 -7 8 -11 4z"/>
<path d="M1380 607 c0 -8 7 -21 16 -28 14 -11 15 -10 12 11 -3 26 -28 41 -28
17z"/>
<path d="M770 556 c0 -2 9 -6 20 -9 11 -3 18 -1 14 4 -5 9 -34 13 -34 5z"/>
<path d="M1158 475 c-36 -24 -88 -89 -88 -111 0 -6 -9 -19 -20 -29 -11 -10
-17 -22 -14 -26 12 -20 26 -6 51 47 26 58 62 104 82 104 6 0 28 9 48 20 l38
20 -30 -1 c-17 0 -47 -11 -67 -24z"/>
<path d="M1125 389 c-11 -17 1 -21 15 -4 8 9 8 15 2 15 -6 0 -14 -5 -17 -11z"/>
<path d="M1520 513 c0 -5 9 -18 20 -28 11 -10 20 -14 20 -8 0 5 -9 18 -20 28
-11 10 -20 14 -20 8z"/>
<path d="M720 495 c0 -7 57 -35 72 -35 20 1 -32 40 -53 40 -10 0 -19 -2 -19
-5z"/>
<path d="M252 323 c2 -10 11 -19 21 -21 16 -3 17 -1 5 17 -16 25 -31 27 -26 4z"/>
<path d="M589 336 c17 -20 69 -37 76 -25 4 5 -2 9 -12 9 -11 0 -28 7 -39 15
-25 19 -40 19 -25 1z"/>
<path d="M952 2768 c-8 -10 -2 -13 25 -14 32 -1 34 1 17 13 -22 16 -29 16 -42
1z"/>
<path d="M1117 2773 c-15 -14 -6 -43 17 -58 30 -20 83 -11 66 11 -7 7 -18 10
-25 8 -21 -9 -38 5 -26 20 17 20 -14 38 -32 19z"/>
<path d="M1030 2761 c0 -6 5 -13 10 -16 6 -4 26 -31 45 -61 19 -30 40 -54 46
-54 5 0 2 12 -9 28 -11 15 -29 46 -41 70 -19 37 -51 58 -51 33z"/>
<path d="M1110 2706 c0 -2 8 -10 18 -17 15 -13 16 -12 3 4 -13 16 -21 21 -21
13z"/>
<path d="M1094 2616 c-3 -8 -1 -23 5 -33 7 -13 10 -14 11 -3 0 11 3 11 12 2
14 -14 38 -16 38 -3 0 5 -14 19 -30 31 -25 18 -31 19 -36 6z"/>
<path d="M1000 2604 c0 -18 23 -32 51 -31 20 2 25 6 21 21 -5 17 -6 18 -17 2
-16 -21 -31 -20 -44 2 -6 9 -11 12 -11 6z"/>
<path d="M310 2456 c-6 -8 -18 -12 -26 -9 -8 3 -14 0 -14 -6 0 -6 7 -11 16
-11 11 0 14 -6 9 -20 -10 -30 12 -24 24 8 l11 27 -6 -30 c-5 -29 -5 -29 15
-11 25 22 26 32 7 52 -18 17 -21 17 -36 0z"/>
<path d="M1465 2421 c-7 -24 3 -50 33 -83 29 -32 57 -35 84 -11 16 14 18 15
18 0 0 -9 -4 -19 -10 -22 -19 -12 -10 -20 40 -38 50 -18 73 -51 28 -40 l-23 6
24 -21 c12 -12 30 -38 37 -59 14 -37 15 -36 11 48 -3 59 -11 98 -26 130 -19
40 -21 41 -17 13 3 -18 8 -45 11 -60 5 -22 4 -25 -4 -14 -6 8 -11 25 -11 38 0
27 -20 29 -27 2 -3 -11 -9 -20 -14 -20 -5 0 -2 16 6 37 8 20 13 38 10 41 -3 3
-5 0 -5 -6 0 -7 -7 -12 -15 -12 -8 0 -15 4 -15 9 0 19 -41 23 -54 5 -8 -10
-20 -15 -30 -11 -17 7 -22 27 -6 27 6 0 10 5 10 10 0 6 -7 10 -15 10 -8 0 -15
9 -15 20 0 25 -17 26 -25 1z m95 -91 c0 -5 -2 -10 -4 -10 -3 0 -8 5 -11 10 -3
6 -1 10 4 10 6 0 11 -4 11 -10z"/>
<path d="M260 2400 c0 -5 5 -10 10 -10 6 0 10 5 10 10 0 6 -4 10 -10 10 -5 0
-10 -4 -10 -10z"/>
<path d="M365 2039 c-10 -15 4 -24 17 -11 8 8 15 9 25 1 18 -16 16 -46 -4 -59
-17 -11 -17 -11 0 -6 10 3 21 6 23 6 2 0 4 15 4 34 0 22 -6 36 -16 40 -23 9
-42 7 -49 -5z"/>
<path d="M1685 1830 c-3 -5 1 -10 10 -10 9 0 13 5 10 10 -3 6 -8 10 -10 10 -2
0 -7 -4 -10 -10z"/>
</g>
</svg>
