<svg width="348" height="462" viewBox="0 0 348 462" fill="none" xmlns="http://www.w3.org/2000/svg">
<g filter="url(#filter0_d_0_360)">
<rect x="34" y="29" width="280" height="394" rx="20" fill="#F2F2F2"/>
<rect x="34.5" y="29.5" width="279" height="393" rx="19.5" stroke="#D2D2D2"/>
</g>
<path d="M101.164 68.125H112.883V107.5C112.883 111.12 112.076 114.323 110.461 117.109C108.872 119.87 106.62 122.005 103.703 123.516C100.786 125.026 97.4922 125.781 93.8203 125.781C87.8047 125.781 83.1172 124.258 79.7578 121.211C76.3984 118.138 74.7187 113.802 74.7187 108.203H86.5156C86.5156 110.99 87.1016 113.047 88.2734 114.375C89.4453 115.703 91.2943 116.367 93.8203 116.367C96.0599 116.367 97.8437 115.599 99.1719 114.062C100.5 112.526 101.164 110.339 101.164 107.5V68.125Z" fill="#F24822"/>
<path fill-rule="evenodd" clip-rule="evenodd" d="M67.2307 185.628L96.5044 215.831L125.778 185.628L96.5044 155.425L67.2307 185.628Z" fill="#F24822"/>
<defs>
<filter id="filter0_d_0_360" x="0" y="0" width="348" height="462" filterUnits="userSpaceOnUse" color-interpolation-filters="sRGB">
<feFlood flood-opacity="0" result="BackgroundImageFix"/>
<feColorMatrix in="SourceAlpha" type="matrix" values="0 0 0 0 0 0 0 0 0 0 0 0 0 0 0 0 0 0 127 0" result="hardAlpha"/>
<feOffset dy="5"/>
<feGaussianBlur stdDeviation="17"/>
<feColorMatrix type="matrix" values="0 0 0 0 0 0 0 0 0 0 0 0 0 0 0 0 0 0 0.1 0"/>
<feBlend mode="normal" in2="BackgroundImageFix" result="effect1_dropShadow_0_360"/>
<feBlend mode="normal" in="SourceGraphic" in2="effect1_dropShadow_0_360" result="shape"/>
</filter>
</defs>
</svg>
